<svg xmlns="http://www.w3.org/2000/svg" viewBox="0 0 940 240" width="940" font-family="ui-monospace,'JetBrains Mono','SF Mono',Menlo,Consolas,monospace">
<defs>
  <linearGradient id="bg2" x1="0" y1="0" x2="0" y2="1">
    <stop offset="0" stop-color="#0d1117"/><stop offset="1" stop-color="#10151d"/>
  </linearGradient>
  <pattern id="scan2" width="4" height="4" patternUnits="userSpaceOnUse">
    <rect width="4" height="2" fill="#000" opacity="0.14"/>
  </pattern>
</defs>
<rect width="940" height="240" rx="14" fill="url(#bg2)" stroke="#30363d"/>
<text x="56" y="40" font-size="12" fill="#8b949e">~ <tspan fill="#53fca1">❯</tspan> <tspan fill="#c9d1d9">git log --all --since="1 year" --oneline | wc -l</tspan>  <tspan fill="#ffb454">→ 2,054 commits</tspan></text>
<rect x="56.0" y="188.0" width="56.3" height="2.0" rx="3" fill="#53fca1" opacity="0.40"/><text x="84.2" y="181.0" text-anchor="middle" font-size="10" fill="#53fca1"></text><text x="84.2" y="208" text-anchor="middle" font-size="10" fill="#8b949e">Jul</text><rect x="126.3" y="188.0" width="56.3" height="2.0" rx="3" fill="#53fca1" opacity="0.40"/><text x="154.5" y="181.0" text-anchor="middle" font-size="10" fill="#53fca1"></text><text x="154.5" y="208" text-anchor="middle" font-size="10" fill="#8b949e">Aug</text><rect x="196.7" y="188.0" width="56.3" height="2.0" rx="3" fill="#53fca1" opacity="0.40"/><text x="224.8" y="181.0" text-anchor="middle" font-size="10" fill="#53fca1"></text><text x="224.8" y="208" text-anchor="middle" font-size="10" fill="#8b949e">Sep</text><rect x="267.0" y="188.0" width="56.3" height="2.0" rx="3" fill="#53fca1" opacity="0.40"/><text x="295.2" y="181.0" text-anchor="middle" font-size="10" fill="#53fca1"></text><text x="295.2" y="208" text-anchor="middle" font-size="10" fill="#8b949e">Oct</text><rect x="337.3" y="136.3" width="56.3" height="53.7" rx="3" fill="#53fca1" opacity="0.67"/><text x="365.5" y="129.3" text-anchor="middle" font-size="10" fill="#53fca1">257</text><text x="365.5" y="208" text-anchor="middle" font-size="10" fill="#8b949e">Nov</text><rect x="407.7" y="132.9" width="56.3" height="57.1" rx="3" fill="#53fca1" opacity="0.69"/><text x="435.8" y="125.9" text-anchor="middle" font-size="10" fill="#53fca1">273</text><text x="435.8" y="208" text-anchor="middle" font-size="10" fill="#8b949e">Dec</text><rect x="478.0" y="140.7" width="56.3" height="49.3" rx="3" fill="#53fca1" opacity="0.65"/><text x="506.2" y="133.7" text-anchor="middle" font-size="10" fill="#53fca1">236</text><text x="506.2" y="208" text-anchor="middle" font-size="10" fill="#8b949e">Jan</text><rect x="548.3" y="179.1" width="56.3" height="10.9" rx="3" fill="#53fca1" opacity="0.45"/><text x="576.5" y="172.1" text-anchor="middle" font-size="10" fill="#53fca1">52</text><text x="576.5" y="208" text-anchor="middle" font-size="10" fill="#8b949e">Feb</text><rect x="618.7" y="70.0" width="56.3" height="120.0" rx="3" fill="#53fca1" opacity="1.00"/><text x="646.8" y="63.0" text-anchor="middle" font-size="10" fill="#53fca1">574</text><text x="646.8" y="208" text-anchor="middle" font-size="10" fill="#8b949e">Mar</text><rect x="689.0" y="121.4" width="56.3" height="68.6" rx="3" fill="#53fca1" opacity="0.74"/><text x="717.2" y="114.4" text-anchor="middle" font-size="10" fill="#53fca1">328</text><text x="717.2" y="208" text-anchor="middle" font-size="10" fill="#8b949e">Apr</text><rect x="759.3" y="125.2" width="56.3" height="64.8" rx="3" fill="#53fca1" opacity="0.72"/><text x="787.5" y="118.2" text-anchor="middle" font-size="10" fill="#53fca1">310</text><text x="787.5" y="208" text-anchor="middle" font-size="10" fill="#8b949e">May</text><rect x="829.7" y="185.0" width="56.3" height="5.0" rx="3" fill="#ffb454" opacity="1.00"/><text x="857.8" y="178.0" text-anchor="middle" font-size="10" fill="#53fca1">24</text><text x="857.8" y="208" text-anchor="middle" font-size="10" fill="#8b949e">Jun</text>
<rect width="940" height="240" rx="14" fill="url(#scan2)"/>
</svg>