<svg xmlns="http://www.w3.org/2000/svg" viewBox="0 0 940 560" width="940" font-family="ui-monospace,'JetBrains Mono','SF Mono',Menlo,Consolas,monospace">
<defs>
  <pattern id="dots" width="22" height="22" patternUnits="userSpaceOnUse">
    <circle cx="2" cy="2" r="0.9" fill="#1a2330"/>
  </pattern>
</defs>
<rect width="940" height="560" rx="14" fill="#070b10" stroke="#1c2430"/>
<line x1="0" y1="44" x2="940" y2="44" stroke="#1c2430"/>
<text x="24" y="28" font-size="14" font-weight="700" fill="#97fce4">SEAMMONEY-PERP</text><text x="186" y="28" font-size="11" fill="#55657a">ORG COMMITS / 52W</text><circle cx="332" cy="24" r="4" fill="#16c79a"><animate attributeName="opacity" values="1;0.2;1" dur="2s" repeatCount="indefinite"/></circle><text x="344" y="28" font-size="11" fill="#16c79a">LIVE</text><text x="916" y="28" text-anchor="end" font-size="11" fill="#9fb2c8">LAST <tspan fill="#97fce4" font-weight="700">5</tspan>   30D <tspan fill="#16c79a" font-weight="700">+1.1%</tspan>   52W VOL <tspan fill="#97fce4" font-weight="700">1,927</tspan>   REPOS <tspan fill="#ffb454" font-weight="700">26</tspan></text><rect x="20" y="56" width="660" height="390" rx="8" fill="#0b1018" stroke="#1c2430"/><rect x="20" y="56" width="660" height="390" rx="8" fill="url(#dots)"/><line x1="28" y1="360.0" x2="624" y2="360.0" stroke="#141b26" stroke-dasharray="2 6"/><text x="634" y="364.0" font-size="9" fill="#55657a">0</text><line x1="28" y1="287.5" x2="624" y2="287.5" stroke="#141b26" stroke-dasharray="2 6"/><text x="634" y="291.5" font-size="9" fill="#55657a">66</text><line x1="28" y1="215.0" x2="624" y2="215.0" stroke="#141b26" stroke-dasharray="2 6"/><text x="634" y="219.0" font-size="9" fill="#55657a">131</text><line x1="28" y1="142.5" x2="624" y2="142.5" stroke="#141b26" stroke-dasharray="2 6"/><text x="634" y="146.5" font-size="9" fill="#55657a">197</text><line x1="28" y1="70.0" x2="624" y2="70.0" stroke="#141b26" stroke-dasharray="2 6"/><text x="634" y="74.0" font-size="9" fill="#55657a">263</text><polyline points="34.3,360.0 45.8,360.0 57.3,360.0 68.9,360.0 80.4,360.0 92.0,360.0 103.5,360.0 115.0,360.0 126.6,360.0 138.1,360.0 149.7,360.0 161.2,360.0 172.7,360.0 184.3,360.0 195.8,360.0 207.3,360.0 218.9,360.0 230.4,360.0 242.0,360.0 253.5,360.0 265.0,360.0 276.6,360.0 288.1,304.8 299.7,227.6 311.2,358.9 322.7,268.4 334.3,357.8 345.8,218.8 357.3,299.3 368.9,312.6 380.4,326.9 392.0,285.0 403.5,334.6 415.0,333.5 426.6,358.9 438.1,355.6 449.7,352.3 461.2,287.2 472.7,204.5 484.3,283.9 495.8,90.8 507.3,271.7 518.9,260.7 530.4,278.4 542.0,268.4 553.5,292.7 565.0,296.0 576.6,298.2 588.1,282.8 599.7,288.3 611.2,221.0 622.7,354.5" fill="none" stroke="#97fce4" stroke-width="1" opacity="0.35"/><line x1="34.3" y1="360.0" x2="34.3" y2="360.0" stroke="#16c79a"/><rect x="30.0" y="360.0" width="8.5" height="2.0" rx="1" fill="#16c79a"/><rect x="30.0" y="426.0" width="8.5" height="1.0" fill="#16c79a" opacity="0.4"/><line x1="45.8" y1="360.0" x2="45.8" y2="360.0" stroke="#16c79a"/><rect x="41.5" y="360.0" width="8.5" height="2.0" rx="1" fill="#16c79a"/><rect x="41.5" y="426.0" width="8.5" height="1.0" fill="#16c79a" opacity="0.4"/><line x1="57.3" y1="360.0" x2="57.3" y2="360.0" stroke="#16c79a"/><rect x="53.1" y="360.0" width="8.5" height="2.0" rx="1" fill="#16c79a"/><rect x="53.1" y="426.0" width="8.5" height="1.0" fill="#16c79a" opacity="0.4"/><line x1="68.9" y1="360.0" x2="68.9" y2="360.0" stroke="#16c79a"/><rect x="64.6" y="360.0" width="8.5" height="2.0" rx="1" fill="#16c79a"/><rect x="64.6" y="426.0" width="8.5" height="1.0" fill="#16c79a" opacity="0.4"/><line x1="80.4" y1="360.0" x2="80.4" y2="360.0" stroke="#16c79a"/><rect x="76.2" y="360.0" width="8.5" height="2.0" rx="1" fill="#16c79a"/><rect x="76.2" y="426.0" width="8.5" height="1.0" fill="#16c79a" opacity="0.4"/><line x1="92.0" y1="360.0" x2="92.0" y2="360.0" stroke="#16c79a"/><rect x="87.7" y="360.0" width="8.5" height="2.0" rx="1" fill="#16c79a"/><rect x="87.7" y="426.0" width="8.5" height="1.0" fill="#16c79a" opacity="0.4"/><line x1="103.5" y1="360.0" x2="103.5" y2="360.0" stroke="#16c79a"/><rect x="99.2" y="360.0" width="8.5" height="2.0" rx="1" fill="#16c79a"/><rect x="99.2" y="426.0" width="8.5" height="1.0" fill="#16c79a" opacity="0.4"/><line x1="115.0" y1="360.0" x2="115.0" y2="360.0" stroke="#16c79a"/><rect x="110.8" y="360.0" width="8.5" height="2.0" rx="1" fill="#16c79a"/><rect x="110.8" y="426.0" width="8.5" height="1.0" fill="#16c79a" opacity="0.4"/><line x1="126.6" y1="360.0" x2="126.6" y2="360.0" stroke="#16c79a"/><rect x="122.3" y="360.0" width="8.5" height="2.0" rx="1" fill="#16c79a"/><rect x="122.3" y="426.0" width="8.5" height="1.0" fill="#16c79a" opacity="0.4"/><line x1="138.1" y1="360.0" x2="138.1" y2="360.0" stroke="#16c79a"/><rect x="133.8" y="360.0" width="8.5" height="2.0" rx="1" fill="#16c79a"/><rect x="133.8" y="426.0" width="8.5" height="1.0" fill="#16c79a" opacity="0.4"/><line x1="149.7" y1="360.0" x2="149.7" y2="360.0" stroke="#16c79a"/><rect x="145.4" y="360.0" width="8.5" height="2.0" rx="1" fill="#16c79a"/><rect x="145.4" y="426.0" width="8.5" height="1.0" fill="#16c79a" opacity="0.4"/><line x1="161.2" y1="360.0" x2="161.2" y2="360.0" stroke="#16c79a"/><rect x="156.9" y="360.0" width="8.5" height="2.0" rx="1" fill="#16c79a"/><rect x="156.9" y="426.0" width="8.5" height="1.0" fill="#16c79a" opacity="0.4"/><line x1="172.7" y1="360.0" x2="172.7" y2="360.0" stroke="#16c79a"/><rect x="168.5" y="360.0" width="8.5" height="2.0" rx="1" fill="#16c79a"/><rect x="168.5" y="426.0" width="8.5" height="1.0" fill="#16c79a" opacity="0.4"/><line x1="184.3" y1="360.0" x2="184.3" y2="360.0" stroke="#16c79a"/><rect x="180.0" y="360.0" width="8.5" height="2.0" rx="1" fill="#16c79a"/><rect x="180.0" y="426.0" width="8.5" height="1.0" fill="#16c79a" opacity="0.4"/><line x1="195.8" y1="360.0" x2="195.8" y2="360.0" stroke="#16c79a"/><rect x="191.5" y="360.0" width="8.5" height="2.0" rx="1" fill="#16c79a"/><rect x="191.5" y="426.0" width="8.5" height="1.0" fill="#16c79a" opacity="0.4"/><line x1="207.3" y1="360.0" x2="207.3" y2="360.0" stroke="#16c79a"/><rect x="203.1" y="360.0" width="8.5" height="2.0" rx="1" fill="#16c79a"/><rect x="203.1" y="426.0" width="8.5" height="1.0" fill="#16c79a" opacity="0.4"/><line x1="218.9" y1="360.0" x2="218.9" y2="360.0" stroke="#16c79a"/><rect x="214.6" y="360.0" width="8.5" height="2.0" rx="1" fill="#16c79a"/><rect x="214.6" y="426.0" width="8.5" height="1.0" fill="#16c79a" opacity="0.4"/><line x1="230.4" y1="360.0" x2="230.4" y2="360.0" stroke="#16c79a"/><rect x="226.2" y="360.0" width="8.5" height="2.0" rx="1" fill="#16c79a"/><rect x="226.2" y="426.0" width="8.5" height="1.0" fill="#16c79a" opacity="0.4"/><line x1="242.0" y1="360.0" x2="242.0" y2="360.0" stroke="#16c79a"/><rect x="237.7" y="360.0" width="8.5" height="2.0" rx="1" fill="#16c79a"/><rect x="237.7" y="426.0" width="8.5" height="1.0" fill="#16c79a" opacity="0.4"/><line x1="253.5" y1="360.0" x2="253.5" y2="360.0" stroke="#16c79a"/><rect x="249.2" y="360.0" width="8.5" height="2.0" rx="1" fill="#16c79a"/><rect x="249.2" y="426.0" width="8.5" height="1.0" fill="#16c79a" opacity="0.4"/><line x1="265.0" y1="360.0" x2="265.0" y2="360.0" stroke="#16c79a"/><rect x="260.8" y="360.0" width="8.5" height="2.0" rx="1" fill="#16c79a"/><rect x="260.8" y="426.0" width="8.5" height="1.0" fill="#16c79a" opacity="0.4"/><line x1="276.6" y1="360.0" x2="276.6" y2="360.0" stroke="#16c79a"/><rect x="272.3" y="360.0" width="8.5" height="2.0" rx="1" fill="#16c79a"/><rect x="272.3" y="426.0" width="8.5" height="1.0" fill="#16c79a" opacity="0.4"/><line x1="288.1" y1="304.8" x2="288.1" y2="351.2" stroke="#16c79a"/><rect x="283.8" y="304.8" width="8.5" height="46.3" rx="1" fill="#16c79a"/><rect x="283.8" y="414.9" width="8.5" height="11.1" fill="#16c79a" opacity="0.4"/><line x1="299.7" y1="204.5" x2="299.7" y2="269.5" stroke="#16c79a"/><rect x="295.4" y="227.6" width="8.5" height="41.9" rx="1" fill="#16c79a"/><rect x="295.4" y="399.4" width="8.5" height="26.6" fill="#16c79a" opacity="0.4"/><line x1="311.2" y1="271.7" x2="311.2" y2="358.9" stroke="#f6465d"/><rect x="306.9" y="271.7" width="8.5" height="87.2" rx="1" fill="#f6465d"/><rect x="306.9" y="425.8" width="8.5" height="1.0" fill="#f6465d" opacity="0.4"/><line x1="322.7" y1="267.3" x2="322.7" y2="358.9" stroke="#16c79a"/><rect x="318.5" y="268.4" width="8.5" height="90.5" rx="1" fill="#16c79a"/><rect x="318.5" y="407.6" width="8.5" height="18.4" fill="#16c79a" opacity="0.4"/><line x1="334.3" y1="267.3" x2="334.3" y2="357.8" stroke="#f6465d"/><rect x="330.0" y="267.3" width="8.5" height="90.5" rx="1" fill="#f6465d"/><rect x="330.0" y="425.6" width="8.5" height="1.0" fill="#f6465d" opacity="0.4"/><line x1="345.8" y1="218.8" x2="345.8" y2="354.5" stroke="#16c79a"/><rect x="341.5" y="218.8" width="8.5" height="135.7" rx="1" fill="#16c79a"/><rect x="341.5" y="397.7" width="8.5" height="28.3" fill="#16c79a" opacity="0.4"/><line x1="357.3" y1="190.1" x2="357.3" y2="300.4" stroke="#f6465d"/><rect x="353.1" y="215.5" width="8.5" height="83.8" rx="1" fill="#f6465d"/><rect x="353.1" y="413.8" width="8.5" height="12.2" fill="#f6465d" opacity="0.4"/><line x1="368.9" y1="290.5" x2="368.9" y2="312.6" stroke="#f6465d"/><rect x="364.6" y="299.3" width="8.5" height="13.2" rx="1" fill="#f6465d"/><rect x="364.6" y="416.5" width="8.5" height="9.5" fill="#f6465d" opacity="0.4"/><line x1="380.4" y1="319.2" x2="380.4" y2="341.2" stroke="#f6465d"/><rect x="376.2" y="319.2" width="8.5" height="7.7" rx="1" fill="#f6465d"/><rect x="376.2" y="419.4" width="8.5" height="6.6" fill="#f6465d" opacity="0.4"/><line x1="392.0" y1="285.0" x2="392.0" y2="328.0" stroke="#16c79a"/><rect x="387.7" y="285.0" width="8.5" height="43.0" rx="1" fill="#16c79a"/><rect x="387.7" y="411.0" width="8.5" height="15.0" fill="#16c79a" opacity="0.4"/><line x1="403.5" y1="283.9" x2="403.5" y2="334.6" stroke="#f6465d"/><rect x="399.2" y="283.9" width="8.5" height="50.7" rx="1" fill="#f6465d"/><rect x="399.2" y="420.9" width="8.5" height="5.1" fill="#f6465d" opacity="0.4"/><line x1="415.0" y1="330.2" x2="415.0" y2="336.8" stroke="#16c79a"/><rect x="410.8" y="333.5" width="8.5" height="2.2" rx="1" fill="#16c79a"/><rect x="410.8" y="420.7" width="8.5" height="5.3" fill="#16c79a" opacity="0.4"/><line x1="426.6" y1="333.5" x2="426.6" y2="360.0" stroke="#f6465d"/><rect x="422.3" y="333.5" width="8.5" height="25.4" rx="1" fill="#f6465d"/><rect x="422.3" y="425.8" width="8.5" height="1.0" fill="#f6465d" opacity="0.4"/><line x1="438.1" y1="354.5" x2="438.1" y2="357.8" stroke="#16c79a"/><rect x="433.8" y="355.6" width="8.5" height="2.2" rx="1" fill="#16c79a"/><rect x="433.8" y="425.1" width="8.5" height="1.0" fill="#16c79a" opacity="0.4"/><line x1="449.7" y1="351.2" x2="449.7" y2="354.5" stroke="#16c79a"/><rect x="445.4" y="352.3" width="8.5" height="2.2" rx="1" fill="#16c79a"/><rect x="445.4" y="424.5" width="8.5" height="1.5" fill="#16c79a" opacity="0.4"/><line x1="461.2" y1="287.2" x2="461.2" y2="357.8" stroke="#16c79a"/><rect x="456.9" y="287.2" width="8.5" height="67.3" rx="1" fill="#16c79a"/><rect x="456.9" y="411.4" width="8.5" height="14.6" fill="#16c79a" opacity="0.4"/><line x1="472.7" y1="165.8" x2="472.7" y2="265.1" stroke="#16c79a"/><rect x="468.5" y="204.5" width="8.5" height="60.7" rx="1" fill="#16c79a"/><rect x="468.5" y="394.8" width="8.5" height="31.2" fill="#16c79a" opacity="0.4"/><line x1="484.3" y1="222.1" x2="484.3" y2="283.9" stroke="#f6465d"/><rect x="480.0" y="222.1" width="8.5" height="61.8" rx="1" fill="#f6465d"/><rect x="480.0" y="410.7" width="8.5" height="15.3" fill="#f6465d" opacity="0.4"/><line x1="495.8" y1="90.8" x2="495.8" y2="288.3" stroke="#16c79a"/><rect x="491.5" y="90.8" width="8.5" height="197.5" rx="1" fill="#16c79a"/><rect x="491.5" y="372.0" width="8.5" height="54.0" fill="#16c79a" opacity="0.4"/><line x1="507.3" y1="86.4" x2="507.3" y2="291.6" stroke="#f6465d"/><rect x="503.1" y="86.4" width="8.5" height="185.3" rx="1" fill="#f6465d"/><rect x="503.1" y="408.3" width="8.5" height="17.7" fill="#f6465d" opacity="0.4"/><line x1="518.9" y1="238.7" x2="518.9" y2="260.7" stroke="#f6465d"/><rect x="514.6" y="250.8" width="8.5" height="9.9" rx="1" fill="#f6465d"/><rect x="514.6" y="406.1" width="8.5" height="19.9" fill="#f6465d" opacity="0.4"/><line x1="530.4" y1="272.8" x2="530.4" y2="278.4" stroke="#f6465d"/><rect x="526.2" y="274.0" width="8.5" height="4.4" rx="1" fill="#f6465d"/><rect x="526.2" y="409.6" width="8.5" height="16.4" fill="#f6465d" opacity="0.4"/><line x1="542.0" y1="268.4" x2="542.0" y2="286.1" stroke="#16c79a"/><rect x="537.7" y="268.4" width="8.5" height="11.0" rx="1" fill="#16c79a"/><rect x="537.7" y="407.6" width="8.5" height="18.4" fill="#16c79a" opacity="0.4"/><line x1="553.5" y1="268.4" x2="553.5" y2="292.7" stroke="#f6465d"/><rect x="549.2" y="268.4" width="8.5" height="24.3" rx="1" fill="#f6465d"/><rect x="549.2" y="412.5" width="8.5" height="13.5" fill="#f6465d" opacity="0.4"/><line x1="565.0" y1="292.7" x2="565.0" y2="297.1" stroke="#f6465d"/><rect x="560.8" y="292.7" width="8.5" height="3.3" rx="1" fill="#f6465d"/><rect x="560.8" y="413.2" width="8.5" height="12.8" fill="#f6465d" opacity="0.4"/><line x1="576.6" y1="296.0" x2="576.6" y2="298.2" stroke="#f6465d"/><rect x="572.3" y="296.0" width="8.5" height="2.2" rx="1" fill="#f6465d"/><rect x="572.3" y="413.6" width="8.5" height="12.4" fill="#f6465d" opacity="0.4"/><line x1="588.1" y1="282.8" x2="588.1" y2="300.4" stroke="#16c79a"/><rect x="583.8" y="282.8" width="8.5" height="15.4" rx="1" fill="#16c79a"/><rect x="583.8" y="410.5" width="8.5" height="15.5" fill="#16c79a" opacity="0.4"/><line x1="599.7" y1="271.7" x2="599.7" y2="288.3" stroke="#f6465d"/><rect x="595.4" y="283.9" width="8.5" height="4.4" rx="1" fill="#f6465d"/><rect x="595.4" y="411.6" width="8.5" height="14.4" fill="#f6465d" opacity="0.4"/><line x1="611.2" y1="212.2" x2="611.2" y2="288.3" stroke="#16c79a"/><rect x="606.9" y="221.0" width="8.5" height="67.3" rx="1" fill="#16c79a"/><rect x="606.9" y="398.1" width="8.5" height="27.9" fill="#16c79a" opacity="0.4"/><line x1="622.7" y1="229.8" x2="622.7" y2="354.5" stroke="#f6465d"/><rect x="618.5" y="229.8" width="8.5" height="124.7" rx="1" fill="#f6465d"/><rect x="618.5" y="424.9" width="8.5" height="1.1" fill="#f6465d" opacity="0.4"/><line x1="28" y1="354.5" x2="624" y2="354.5" stroke="#ffb454" stroke-dasharray="6 4"/><rect x="628" y="345.5" width="50" height="17" rx="3" fill="#ffb454"/><text x="653" y="358.5" text-anchor="middle" font-size="10" font-weight="700" fill="#070b10">5</text><text x="30.0" y="440" font-size="9" fill="#55657a">JUN</text><text x="76.2" y="440" font-size="9" fill="#55657a">JUL</text><text x="122.3" y="440" font-size="9" fill="#55657a">AUG</text><text x="168.5" y="440" font-size="9" fill="#55657a">SEP</text><text x="214.6" y="440" font-size="9" fill="#55657a">OCT</text><text x="260.8" y="440" font-size="9" fill="#55657a">NOV</text><text x="306.9" y="440" font-size="9" fill="#55657a">DEC</text><text x="353.1" y="440" font-size="9" fill="#55657a">JAN</text><text x="399.2" y="440" font-size="9" fill="#55657a">JAN</text><text x="445.4" y="440" font-size="9" fill="#55657a">FEB</text><text x="491.5" y="440" font-size="9" fill="#55657a">MAR</text><text x="537.7" y="440" font-size="9" fill="#55657a">APR</text><text x="583.8" y="440" font-size="9" fill="#55657a">MAY</text><rect x="700" y="56" width="216" height="390" rx="8" fill="#0b1018" stroke="#1c2430"/><text x="714" y="80" font-size="11" letter-spacing="2" fill="#9fb2c8">ORDER BOOK</text><text x="902" y="80" text-anchor="end" font-size="9" fill="#55657a">REPOS</text><rect x="714.0" y="94" width="188.0" height="17" fill="#f6465d" opacity="0.16"/><text x="714" y="106" font-size="9.5" fill="#f6465d">TX-COMPOSER</text><text x="902" y="106" text-anchor="end" font-size="10" fill="#9fb2c8">★ 5</text><rect x="751.6" y="116" width="150.4" height="17" fill="#f6465d" opacity="0.16"/><text x="714" y="128" font-size="9.5" fill="#f6465d">SEAM-FRONTEND</text><text x="902" y="128" text-anchor="end" font-size="10" fill="#9fb2c8">★ 4</text><rect x="826.8" y="138" width="75.2" height="17" fill="#f6465d" opacity="0.16"/><text x="714" y="150" font-size="9.5" fill="#f6465d">SEAM-CONTRACTS</text><text x="902" y="150" text-anchor="end" font-size="10" fill="#9fb2c8">★ 2</text><rect x="826.8" y="160" width="75.2" height="17" fill="#f6465d" opacity="0.16"/><text x="714" y="172" font-size="9.5" fill="#f6465d">MOVEGPT</text><text x="902" y="172" text-anchor="end" font-size="10" fill="#9fb2c8">★ 2</text><rect x="826.8" y="182" width="75.2" height="17" fill="#f6465d" opacity="0.16"/><text x="714" y="194" font-size="9.5" fill="#f6465d">APTOS-POLYMARKE</text><text x="902" y="194" text-anchor="end" font-size="10" fill="#9fb2c8">★ 2</text><line x1="710" y1="207" x2="906" y2="207" stroke="#1c2430"/><text x="808.0" y="223" text-anchor="middle" font-size="11" font-weight="700" fill="#ffb454">MARK 1,927 COMMITS</text><line x1="710" y1="231" x2="906" y2="231" stroke="#1c2430"/><rect x="714" y="244" width="188.0" height="17" fill="#16c79a" opacity="0.16"/><text x="714" y="256" font-size="9.5" fill="#16c79a">APTOS-INTELLIGE</text><text x="902" y="256" text-anchor="end" font-size="10" fill="#9fb2c8">137c · 4w</text><rect x="714" y="266" width="157.8" height="17" fill="#16c79a" opacity="0.16"/><text x="714" y="278" font-size="9.5" fill="#16c79a">CASH.TRADING</text><text x="902" y="278" text-anchor="end" font-size="10" fill="#9fb2c8">115c · 4w</text><rect x="714" y="288" width="19.2" height="17" fill="#16c79a" opacity="0.16"/><text x="714" y="300" font-size="9.5" fill="#16c79a">.GITHUB</text><text x="902" y="300" text-anchor="end" font-size="10" fill="#9fb2c8">14c · 4w</text><rect x="714" y="310" width="0.0" height="17" fill="#16c79a" opacity="0.16"/><text x="714" y="322" font-size="9.5" fill="#16c79a">SEAM-CONTRACTS</text><text x="902" y="322" text-anchor="end" font-size="10" fill="#9fb2c8">0c · 4w</text><rect x="714" y="332" width="0.0" height="17" fill="#16c79a" opacity="0.16"/><text x="714" y="344" font-size="9.5" fill="#16c79a">SEAM-FRONTEND</text><text x="902" y="344" text-anchor="end" font-size="10" fill="#9fb2c8">0c · 4w</text><text x="714" y="372" font-size="9" fill="#55657a">ASKS = STARS · BIDS = 4W COMMITS</text>
</svg>