<svg xmlns="http://www.w3.org/2000/svg" viewBox="0 0 940 560" width="940" font-family="ui-monospace,'JetBrains Mono','SF Mono',Menlo,Consolas,monospace">
<defs>
  <pattern id="dots" width="22" height="22" patternUnits="userSpaceOnUse">
    <circle cx="2" cy="2" r="0.9" fill="#1a2330"/>
  </pattern>
</defs>
<rect width="940" height="560" rx="14" fill="#070b10" stroke="#1c2430"/>
<line x1="0" y1="44" x2="940" y2="44" stroke="#1c2430"/>
<text x="24" y="28" font-size="14" font-weight="700" fill="#97fce4">SEAMMONEY-PERP</text><text x="186" y="28" font-size="11" fill="#55657a">ORG COMMITS / 52W</text><circle cx="332" cy="24" r="4" fill="#16c79a"><animate attributeName="opacity" values="1;0.2;1" dur="2s" repeatCount="indefinite"/></circle><text x="344" y="28" font-size="11" fill="#16c79a">LIVE</text><text x="916" y="28" text-anchor="end" font-size="11" fill="#9fb2c8">LAST <tspan fill="#97fce4" font-weight="700">701</tspan>   30D <tspan fill="#16c79a" font-weight="700">+127.6%</tspan>   52W VOL <tspan fill="#97fce4" font-weight="700">3,040</tspan>   REPOS <tspan fill="#ffb454" font-weight="700">27</tspan></text><rect x="20" y="56" width="660" height="390" rx="8" fill="#0b1018" stroke="#1c2430"/><rect x="20" y="56" width="660" height="390" rx="8" fill="url(#dots)"/><line x1="28" y1="360.0" x2="624" y2="360.0" stroke="#141b26" stroke-dasharray="2 6"/><text x="634" y="364.0" font-size="9" fill="#55657a">0</text><line x1="28" y1="287.5" x2="624" y2="287.5" stroke="#141b26" stroke-dasharray="2 6"/><text x="634" y="291.5" font-size="9" fill="#55657a">193</text><line x1="28" y1="215.0" x2="624" y2="215.0" stroke="#141b26" stroke-dasharray="2 6"/><text x="634" y="219.0" font-size="9" fill="#55657a">386</text><line x1="28" y1="142.5" x2="624" y2="142.5" stroke="#141b26" stroke-dasharray="2 6"/><text x="634" y="146.5" font-size="9" fill="#55657a">579</text><line x1="28" y1="70.0" x2="624" y2="70.0" stroke="#141b26" stroke-dasharray="2 6"/><text x="634" y="74.0" font-size="9" fill="#55657a">772</text><polyline points="34.3,360.0 45.8,360.0 57.3,360.0 68.9,360.0 80.4,360.0 92.0,360.0 103.5,360.0 115.0,360.0 126.6,360.0 138.1,360.0 149.7,360.0 161.2,360.0 172.7,360.0 184.3,360.0 195.8,360.0 207.3,360.0 218.9,360.0 230.4,360.0 242.0,360.0 253.5,359.6 265.0,331.1 276.6,338.2 288.1,314.5 299.7,342.0 311.2,324.7 322.7,358.9 334.3,311.9 345.8,338.6 357.3,343.8 368.9,334.4 380.4,334.4 392.0,351.4 403.5,351.0 415.0,359.6 426.6,358.5 438.1,357.4 449.7,335.2 461.2,290.1 472.7,333.3 484.3,268.3 495.8,329.9 507.3,326.2 518.9,331.8 530.4,328.8 542.0,336.7 553.5,334.4 565.0,305.1 576.6,315.3 588.1,334.1 599.7,312.6 611.2,349.1 622.7,96.6" fill="none" stroke="#97fce4" stroke-width="1" opacity="0.35"/><line x1="34.3" y1="360.0" x2="34.3" y2="360.0" stroke="#16c79a"/><rect x="30.0" y="360.0" width="8.5" height="2.0" rx="1" fill="#16c79a"/><rect x="30.0" y="426.0" width="8.5" height="1.0" fill="#16c79a" opacity="0.4"/><line x1="45.8" y1="360.0" x2="45.8" y2="360.0" stroke="#16c79a"/><rect x="41.5" y="360.0" width="8.5" height="2.0" rx="1" fill="#16c79a"/><rect x="41.5" y="426.0" width="8.5" height="1.0" fill="#16c79a" opacity="0.4"/><line x1="57.3" y1="360.0" x2="57.3" y2="360.0" stroke="#16c79a"/><rect x="53.1" y="360.0" width="8.5" height="2.0" rx="1" fill="#16c79a"/><rect x="53.1" y="426.0" width="8.5" height="1.0" fill="#16c79a" opacity="0.4"/><line x1="68.9" y1="360.0" x2="68.9" y2="360.0" stroke="#16c79a"/><rect x="64.6" y="360.0" width="8.5" height="2.0" rx="1" fill="#16c79a"/><rect x="64.6" y="426.0" width="8.5" height="1.0" fill="#16c79a" opacity="0.4"/><line x1="80.4" y1="360.0" x2="80.4" y2="360.0" stroke="#16c79a"/><rect x="76.2" y="360.0" width="8.5" height="2.0" rx="1" fill="#16c79a"/><rect x="76.2" y="426.0" width="8.5" height="1.0" fill="#16c79a" opacity="0.4"/><line x1="92.0" y1="360.0" x2="92.0" y2="360.0" stroke="#16c79a"/><rect x="87.7" y="360.0" width="8.5" height="2.0" rx="1" fill="#16c79a"/><rect x="87.7" y="426.0" width="8.5" height="1.0" fill="#16c79a" opacity="0.4"/><line x1="103.5" y1="360.0" x2="103.5" y2="360.0" stroke="#16c79a"/><rect x="99.2" y="360.0" width="8.5" height="2.0" rx="1" fill="#16c79a"/><rect x="99.2" y="426.0" width="8.5" height="1.0" fill="#16c79a" opacity="0.4"/><line x1="115.0" y1="360.0" x2="115.0" y2="360.0" stroke="#16c79a"/><rect x="110.8" y="360.0" width="8.5" height="2.0" rx="1" fill="#16c79a"/><rect x="110.8" y="426.0" width="8.5" height="1.0" fill="#16c79a" opacity="0.4"/><line x1="126.6" y1="360.0" x2="126.6" y2="360.0" stroke="#16c79a"/><rect x="122.3" y="360.0" width="8.5" height="2.0" rx="1" fill="#16c79a"/><rect x="122.3" y="426.0" width="8.5" height="1.0" fill="#16c79a" opacity="0.4"/><line x1="138.1" y1="360.0" x2="138.1" y2="360.0" stroke="#16c79a"/><rect x="133.8" y="360.0" width="8.5" height="2.0" rx="1" fill="#16c79a"/><rect x="133.8" y="426.0" width="8.5" height="1.0" fill="#16c79a" opacity="0.4"/><line x1="149.7" y1="360.0" x2="149.7" y2="360.0" stroke="#16c79a"/><rect x="145.4" y="360.0" width="8.5" height="2.0" rx="1" fill="#16c79a"/><rect x="145.4" y="426.0" width="8.5" height="1.0" fill="#16c79a" opacity="0.4"/><line x1="161.2" y1="360.0" x2="161.2" y2="360.0" stroke="#16c79a"/><rect x="156.9" y="360.0" width="8.5" height="2.0" rx="1" fill="#16c79a"/><rect x="156.9" y="426.0" width="8.5" height="1.0" fill="#16c79a" opacity="0.4"/><line x1="172.7" y1="360.0" x2="172.7" y2="360.0" stroke="#16c79a"/><rect x="168.5" y="360.0" width="8.5" height="2.0" rx="1" fill="#16c79a"/><rect x="168.5" y="426.0" width="8.5" height="1.0" fill="#16c79a" opacity="0.4"/><line x1="184.3" y1="360.0" x2="184.3" y2="360.0" stroke="#16c79a"/><rect x="180.0" y="360.0" width="8.5" height="2.0" rx="1" fill="#16c79a"/><rect x="180.0" y="426.0" width="8.5" height="1.0" fill="#16c79a" opacity="0.4"/><line x1="195.8" y1="360.0" x2="195.8" y2="360.0" stroke="#16c79a"/><rect x="191.5" y="360.0" width="8.5" height="2.0" rx="1" fill="#16c79a"/><rect x="191.5" y="426.0" width="8.5" height="1.0" fill="#16c79a" opacity="0.4"/><line x1="207.3" y1="360.0" x2="207.3" y2="360.0" stroke="#16c79a"/><rect x="203.1" y="360.0" width="8.5" height="2.0" rx="1" fill="#16c79a"/><rect x="203.1" y="426.0" width="8.5" height="1.0" fill="#16c79a" opacity="0.4"/><line x1="218.9" y1="360.0" x2="218.9" y2="360.0" stroke="#16c79a"/><rect x="214.6" y="360.0" width="8.5" height="2.0" rx="1" fill="#16c79a"/><rect x="214.6" y="426.0" width="8.5" height="1.0" fill="#16c79a" opacity="0.4"/><line x1="230.4" y1="360.0" x2="230.4" y2="360.0" stroke="#16c79a"/><rect x="226.2" y="360.0" width="8.5" height="2.0" rx="1" fill="#16c79a"/><rect x="226.2" y="426.0" width="8.5" height="1.0" fill="#16c79a" opacity="0.4"/><line x1="242.0" y1="360.0" x2="242.0" y2="360.0" stroke="#16c79a"/><rect x="237.7" y="360.0" width="8.5" height="2.0" rx="1" fill="#16c79a"/><rect x="237.7" y="426.0" width="8.5" height="1.0" fill="#16c79a" opacity="0.4"/><line x1="253.5" y1="359.6" x2="253.5" y2="360.0" stroke="#16c79a"/><rect x="249.2" y="359.6" width="8.5" height="2.0" rx="1" fill="#16c79a"/><rect x="249.2" y="425.9" width="8.5" height="1.0" fill="#16c79a" opacity="0.4"/><line x1="265.0" y1="331.1" x2="265.0" y2="359.2" stroke="#16c79a"/><rect x="260.8" y="331.1" width="8.5" height="28.2" rx="1" fill="#16c79a"/><rect x="260.8" y="420.1" width="8.5" height="5.9" fill="#16c79a" opacity="0.4"/><line x1="276.6" y1="325.4" x2="276.6" y2="344.6" stroke="#f6465d"/><rect x="272.3" y="325.4" width="8.5" height="12.8" rx="1" fill="#f6465d"/><rect x="272.3" y="421.5" width="8.5" height="4.5" fill="#f6465d" opacity="0.4"/><line x1="288.1" y1="307.0" x2="288.1" y2="329.2" stroke="#16c79a"/><rect x="283.8" y="314.5" width="8.5" height="14.7" rx="1" fill="#16c79a"/><rect x="283.8" y="416.7" width="8.5" height="9.3" fill="#16c79a" opacity="0.4"/><line x1="299.7" y1="327.7" x2="299.7" y2="342.0" stroke="#f6465d"/><rect x="295.4" y="329.6" width="8.5" height="12.4" rx="1" fill="#f6465d"/><rect x="295.4" y="422.3" width="8.5" height="3.7" fill="#f6465d" opacity="0.4"/><line x1="311.2" y1="324.3" x2="311.2" y2="346.1" stroke="#16c79a"/><rect x="306.9" y="324.7" width="8.5" height="17.3" rx="1" fill="#16c79a"/><rect x="306.9" y="418.8" width="8.5" height="7.2" fill="#16c79a" opacity="0.4"/><line x1="322.7" y1="323.9" x2="322.7" y2="358.9" stroke="#f6465d"/><rect x="318.5" y="323.9" width="8.5" height="34.9" rx="1" fill="#f6465d"/><rect x="318.5" y="425.8" width="8.5" height="1.0" fill="#f6465d" opacity="0.4"/><line x1="334.3" y1="311.9" x2="334.3" y2="358.1" stroke="#16c79a"/><rect x="330.0" y="311.9" width="8.5" height="46.2" rx="1" fill="#16c79a"/><rect x="330.0" y="416.1" width="8.5" height="9.9" fill="#16c79a" opacity="0.4"/><line x1="345.8" y1="301.4" x2="345.8" y2="339.0" stroke="#f6465d"/><rect x="341.5" y="310.8" width="8.5" height="27.8" rx="1" fill="#f6465d"/><rect x="341.5" y="421.6" width="8.5" height="4.4" fill="#f6465d" opacity="0.4"/><line x1="357.3" y1="335.6" x2="357.3" y2="343.8" stroke="#f6465d"/><rect x="353.1" y="338.6" width="8.5" height="5.3" rx="1" fill="#f6465d"/><rect x="353.1" y="422.7" width="8.5" height="3.3" fill="#f6465d" opacity="0.4"/><line x1="368.9" y1="334.4" x2="368.9" y2="349.1" stroke="#16c79a"/><rect x="364.6" y="334.4" width="8.5" height="11.6" rx="1" fill="#16c79a"/><rect x="364.6" y="420.8" width="8.5" height="5.2" fill="#16c79a" opacity="0.4"/><line x1="380.4" y1="331.4" x2="380.4" y2="339.3" stroke="#16c79a"/><rect x="376.2" y="334.4" width="8.5" height="2.0" rx="1" fill="#16c79a"/><rect x="376.2" y="420.8" width="8.5" height="5.2" fill="#16c79a" opacity="0.4"/><line x1="392.0" y1="334.1" x2="392.0" y2="351.4" stroke="#f6465d"/><rect x="387.7" y="334.1" width="8.5" height="17.3" rx="1" fill="#f6465d"/><rect x="387.7" y="424.2" width="8.5" height="1.8" fill="#f6465d" opacity="0.4"/><line x1="403.5" y1="349.9" x2="403.5" y2="352.1" stroke="#16c79a"/><rect x="399.2" y="351.0" width="8.5" height="2.0" rx="1" fill="#16c79a"/><rect x="399.2" y="424.2" width="8.5" height="1.8" fill="#16c79a" opacity="0.4"/><line x1="415.0" y1="351.0" x2="415.0" y2="360.0" stroke="#f6465d"/><rect x="410.8" y="351.0" width="8.5" height="8.6" rx="1" fill="#f6465d"/><rect x="410.8" y="425.9" width="8.5" height="1.0" fill="#f6465d" opacity="0.4"/><line x1="426.6" y1="358.1" x2="426.6" y2="359.2" stroke="#16c79a"/><rect x="422.3" y="358.5" width="8.5" height="2.0" rx="1" fill="#16c79a"/><rect x="422.3" y="425.7" width="8.5" height="1.0" fill="#16c79a" opacity="0.4"/><line x1="438.1" y1="357.0" x2="438.1" y2="358.1" stroke="#16c79a"/><rect x="433.8" y="357.4" width="8.5" height="2.0" rx="1" fill="#16c79a"/><rect x="433.8" y="425.5" width="8.5" height="1.0" fill="#16c79a" opacity="0.4"/><line x1="449.7" y1="335.2" x2="449.7" y2="359.2" stroke="#16c79a"/><rect x="445.4" y="335.2" width="8.5" height="22.9" rx="1" fill="#16c79a"/><rect x="445.4" y="420.9" width="8.5" height="5.1" fill="#16c79a" opacity="0.4"/><line x1="461.2" y1="290.1" x2="461.2" y2="327.7" stroke="#16c79a"/><rect x="456.9" y="290.1" width="8.5" height="37.6" rx="1" fill="#16c79a"/><rect x="456.9" y="411.7" width="8.5" height="14.3" fill="#16c79a" opacity="0.4"/><line x1="472.7" y1="296.1" x2="472.7" y2="333.3" stroke="#f6465d"/><rect x="468.5" y="296.1" width="8.5" height="37.2" rx="1" fill="#f6465d"/><rect x="468.5" y="420.5" width="8.5" height="5.5" fill="#f6465d" opacity="0.4"/><line x1="484.3" y1="268.3" x2="484.3" y2="334.8" stroke="#16c79a"/><rect x="480.0" y="268.3" width="8.5" height="66.5" rx="1" fill="#16c79a"/><rect x="480.0" y="407.2" width="8.5" height="18.8" fill="#16c79a" opacity="0.4"/><line x1="495.8" y1="266.8" x2="495.8" y2="336.7" stroke="#f6465d"/><rect x="491.5" y="266.8" width="8.5" height="63.1" rx="1" fill="#f6465d"/><rect x="491.5" y="419.8" width="8.5" height="6.2" fill="#f6465d" opacity="0.4"/><line x1="507.3" y1="318.7" x2="507.3" y2="326.2" stroke="#f6465d"/><rect x="503.1" y="322.8" width="8.5" height="3.4" rx="1" fill="#f6465d"/><rect x="503.1" y="419.1" width="8.5" height="6.9" fill="#f6465d" opacity="0.4"/><line x1="518.9" y1="329.9" x2="518.9" y2="331.8" stroke="#f6465d"/><rect x="514.6" y="330.7" width="8.5" height="2.0" rx="1" fill="#f6465d"/><rect x="514.6" y="420.2" width="8.5" height="5.8" fill="#f6465d" opacity="0.4"/><line x1="530.4" y1="328.8" x2="530.4" y2="334.8" stroke="#16c79a"/><rect x="526.2" y="328.8" width="8.5" height="3.4" rx="1" fill="#16c79a"/><rect x="526.2" y="419.6" width="8.5" height="6.4" fill="#16c79a" opacity="0.4"/><line x1="542.0" y1="328.8" x2="542.0" y2="336.7" stroke="#f6465d"/><rect x="537.7" y="328.8" width="8.5" height="7.9" rx="1" fill="#f6465d"/><rect x="537.7" y="421.2" width="8.5" height="4.8" fill="#f6465d" opacity="0.4"/><line x1="553.5" y1="334.4" x2="553.5" y2="336.3" stroke="#16c79a"/><rect x="549.2" y="334.4" width="8.5" height="2.0" rx="1" fill="#16c79a"/><rect x="549.2" y="420.8" width="8.5" height="5.2" fill="#16c79a" opacity="0.4"/><line x1="565.0" y1="305.1" x2="565.0" y2="334.8" stroke="#16c79a"/><rect x="560.8" y="305.1" width="8.5" height="29.7" rx="1" fill="#16c79a"/><rect x="560.8" y="414.8" width="8.5" height="11.2" fill="#16c79a" opacity="0.4"/><line x1="576.6" y1="292.0" x2="576.6" y2="315.3" stroke="#f6465d"/><rect x="572.3" y="295.0" width="8.5" height="20.3" rx="1" fill="#f6465d"/><rect x="572.3" y="416.8" width="8.5" height="9.2" fill="#f6465d" opacity="0.4"/><line x1="588.1" y1="325.8" x2="588.1" y2="334.1" stroke="#f6465d"/><rect x="583.8" y="325.8" width="8.5" height="8.3" rx="1" fill="#f6465d"/><rect x="583.8" y="420.7" width="8.5" height="5.3" fill="#f6465d" opacity="0.4"/><line x1="599.7" y1="309.6" x2="599.7" y2="334.4" stroke="#16c79a"/><rect x="595.4" y="312.6" width="8.5" height="21.4" rx="1" fill="#16c79a"/><rect x="595.4" y="416.3" width="8.5" height="9.7" fill="#16c79a" opacity="0.4"/><line x1="611.2" y1="315.7" x2="611.2" y2="356.2" stroke="#f6465d"/><rect x="606.9" y="315.7" width="8.5" height="33.4" rx="1" fill="#f6465d"/><rect x="606.9" y="423.8" width="8.5" height="2.2" fill="#f6465d" opacity="0.4"/><line x1="622.7" y1="86.4" x2="622.7" y2="174.0" stroke="#16c79a"/><rect x="618.5" y="96.6" width="8.5" height="77.4" rx="1" fill="#16c79a"/><rect x="618.5" y="372.0" width="8.5" height="54.0" fill="#16c79a" opacity="0.4"/><line x1="28" y1="96.6" x2="624" y2="96.6" stroke="#ffb454" stroke-dasharray="6 4"/><rect x="628" y="87.6" width="50" height="17" rx="3" fill="#ffb454"/><text x="653" y="100.6" text-anchor="middle" font-size="10" font-weight="700" fill="#070b10">701</text><text x="30.0" y="440" font-size="9" fill="#55657a">JUN</text><text x="76.2" y="440" font-size="9" fill="#55657a">JUL</text><text x="122.3" y="440" font-size="9" fill="#55657a">AUG</text><text x="168.5" y="440" font-size="9" fill="#55657a">SEP</text><text x="214.6" y="440" font-size="9" fill="#55657a">OCT</text><text x="260.8" y="440" font-size="9" fill="#55657a">NOV</text><text x="306.9" y="440" font-size="9" fill="#55657a">DEC</text><text x="353.1" y="440" font-size="9" fill="#55657a">JAN</text><text x="399.2" y="440" font-size="9" fill="#55657a">FEB</text><text x="445.4" y="440" font-size="9" fill="#55657a">MAR</text><text x="491.5" y="440" font-size="9" fill="#55657a">MAR</text><text x="537.7" y="440" font-size="9" fill="#55657a">APR</text><text x="583.8" y="440" font-size="9" fill="#55657a">MAY</text><rect x="700" y="56" width="216" height="390" rx="8" fill="#0b1018" stroke="#1c2430"/><text x="714" y="80" font-size="11" letter-spacing="2" fill="#9fb2c8">ORDER BOOK</text><text x="902" y="80" text-anchor="end" font-size="9" fill="#55657a">REPOS</text><rect x="714.0" y="94" width="188.0" height="17" fill="#f6465d" opacity="0.16"/><text x="714" y="106" font-size="9.5" fill="#f6465d">TX-COMPOSER</text><text x="902" y="106" text-anchor="end" font-size="10" fill="#9fb2c8">★ 5</text><rect x="751.6" y="116" width="150.4" height="17" fill="#f6465d" opacity="0.16"/><text x="714" y="128" font-size="9.5" fill="#f6465d">SEAM-FRONTEND</text><text x="902" y="128" text-anchor="end" font-size="10" fill="#9fb2c8">★ 4</text><rect x="826.8" y="138" width="75.2" height="17" fill="#f6465d" opacity="0.16"/><text x="714" y="150" font-size="9.5" fill="#f6465d">SEAM-CONTRACTS</text><text x="902" y="150" text-anchor="end" font-size="10" fill="#9fb2c8">★ 2</text><rect x="826.8" y="160" width="75.2" height="17" fill="#f6465d" opacity="0.16"/><text x="714" y="172" font-size="9.5" fill="#f6465d">MOVEGPT</text><text x="902" y="172" text-anchor="end" font-size="10" fill="#9fb2c8">★ 2</text><rect x="826.8" y="182" width="75.2" height="17" fill="#f6465d" opacity="0.16"/><text x="714" y="194" font-size="9.5" fill="#f6465d">APTOS-POLYMARKE</text><text x="902" y="194" text-anchor="end" font-size="10" fill="#9fb2c8">★ 2</text><line x1="710" y1="207" x2="906" y2="207" stroke="#1c2430"/><text x="808.0" y="223" text-anchor="middle" font-size="11" font-weight="700" fill="#ffb454">MARK 3,040 COMMITS</text><line x1="710" y1="231" x2="906" y2="231" stroke="#1c2430"/><rect x="714" y="244" width="188.0" height="17" fill="#16c79a" opacity="0.16"/><text x="714" y="256" font-size="9.5" fill="#16c79a">SUI-OPTIONS</text><text x="902" y="256" text-anchor="end" font-size="10" fill="#9fb2c8">722c · 4w</text><rect x="714" y="266" width="25.3" height="17" fill="#16c79a" opacity="0.16"/><text x="714" y="278" font-size="9.5" fill="#16c79a">CASH.TRADING</text><text x="902" y="278" text-anchor="end" font-size="10" fill="#9fb2c8">97c · 4w</text><rect x="714" y="288" width="22.1" height="17" fill="#16c79a" opacity="0.16"/><text x="714" y="300" font-size="9.5" fill="#16c79a">APTOS-INTELLIGE</text><text x="902" y="300" text-anchor="end" font-size="10" fill="#9fb2c8">85c · 4w</text><rect x="714" y="310" width="4.7" height="17" fill="#16c79a" opacity="0.16"/><text x="714" y="322" font-size="9.5" fill="#16c79a">.GITHUB</text><text x="902" y="322" text-anchor="end" font-size="10" fill="#9fb2c8">18c · 4w</text><rect x="714" y="332" width="0.8" height="17" fill="#16c79a" opacity="0.16"/><text x="714" y="344" font-size="9.5" fill="#16c79a">APTOS-POLYMARKE</text><text x="902" y="344" text-anchor="end" font-size="10" fill="#9fb2c8">3c · 4w</text><text x="714" y="372" font-size="9" fill="#55657a">ASKS = STARS · BIDS = 4W COMMITS</text>
</svg>