<svg xmlns="http://www.w3.org/2000/svg" viewBox="0 0 940 560" width="940" font-family="ui-monospace,'JetBrains Mono','SF Mono',Menlo,Consolas,monospace">
<defs>
  <pattern id="dots" width="22" height="22" patternUnits="userSpaceOnUse">
    <circle cx="2" cy="2" r="0.9" fill="#1a2330"/>
  </pattern>
</defs>
<rect width="940" height="560" rx="14" fill="#070b10" stroke="#1c2430"/>
<line x1="0" y1="44" x2="940" y2="44" stroke="#1c2430"/>
<text x="24" y="28" font-size="14" font-weight="700" fill="#97fce4">SEAMMONEY-PERP</text><text x="186" y="28" font-size="11" fill="#55657a">ORG COMMITS / 52W</text><circle cx="332" cy="24" r="4" fill="#16c79a"><animate attributeName="opacity" values="1;0.2;1" dur="2s" repeatCount="indefinite"/></circle><text x="344" y="28" font-size="11" fill="#16c79a">LIVE</text><text x="916" y="28" text-anchor="end" font-size="11" fill="#9fb2c8">LAST <tspan fill="#97fce4" font-weight="700">589</tspan>   30D <tspan fill="#16c79a" font-weight="700">+101.0%</tspan>   52W VOL <tspan fill="#97fce4" font-weight="700">2,858</tspan>   REPOS <tspan fill="#ffb454" font-weight="700">27</tspan></text><rect x="20" y="56" width="660" height="390" rx="8" fill="#0b1018" stroke="#1c2430"/><rect x="20" y="56" width="660" height="390" rx="8" fill="url(#dots)"/><line x1="28" y1="360.0" x2="624" y2="360.0" stroke="#141b26" stroke-dasharray="2 6"/><text x="634" y="364.0" font-size="9" fill="#55657a">0</text><line x1="28" y1="287.5" x2="624" y2="287.5" stroke="#141b26" stroke-dasharray="2 6"/><text x="634" y="291.5" font-size="9" fill="#55657a">163</text><line x1="28" y1="215.0" x2="624" y2="215.0" stroke="#141b26" stroke-dasharray="2 6"/><text x="634" y="219.0" font-size="9" fill="#55657a">326</text><line x1="28" y1="142.5" x2="624" y2="142.5" stroke="#141b26" stroke-dasharray="2 6"/><text x="634" y="146.5" font-size="9" fill="#55657a">490</text><line x1="28" y1="70.0" x2="624" y2="70.0" stroke="#141b26" stroke-dasharray="2 6"/><text x="634" y="74.0" font-size="9" fill="#55657a">653</text><polyline points="34.3,360.0 45.8,360.0 57.3,360.0 68.9,360.0 80.4,360.0 92.0,360.0 103.5,360.0 115.0,360.0 126.6,360.0 138.1,360.0 149.7,360.0 161.2,360.0 172.7,360.0 184.3,360.0 195.8,360.0 207.3,360.0 218.9,360.0 230.4,360.0 242.0,360.0 253.5,359.6 265.0,325.8 276.6,334.2 288.1,306.3 299.7,338.7 311.2,318.3 322.7,358.7 334.3,309.8 345.8,355.6 357.3,343.1 368.9,329.8 380.4,329.8 392.0,350.2 403.5,349.3 415.0,359.6 426.6,358.2 438.1,357.8 449.7,330.7 461.2,277.4 472.7,328.5 484.3,251.6 495.8,324.5 507.3,320.0 518.9,326.7 530.4,323.1 542.0,332.5 553.5,329.8 565.0,295.2 576.6,307.1 588.1,329.4 599.7,304.0 611.2,347.1 622.7,98.4" fill="none" stroke="#97fce4" stroke-width="1" opacity="0.35"/><line x1="34.3" y1="360.0" x2="34.3" y2="360.0" stroke="#16c79a"/><rect x="30.0" y="360.0" width="8.5" height="2.0" rx="1" fill="#16c79a"/><rect x="30.0" y="426.0" width="8.5" height="1.0" fill="#16c79a" opacity="0.4"/><line x1="45.8" y1="360.0" x2="45.8" y2="360.0" stroke="#16c79a"/><rect x="41.5" y="360.0" width="8.5" height="2.0" rx="1" fill="#16c79a"/><rect x="41.5" y="426.0" width="8.5" height="1.0" fill="#16c79a" opacity="0.4"/><line x1="57.3" y1="360.0" x2="57.3" y2="360.0" stroke="#16c79a"/><rect x="53.1" y="360.0" width="8.5" height="2.0" rx="1" fill="#16c79a"/><rect x="53.1" y="426.0" width="8.5" height="1.0" fill="#16c79a" opacity="0.4"/><line x1="68.9" y1="360.0" x2="68.9" y2="360.0" stroke="#16c79a"/><rect x="64.6" y="360.0" width="8.5" height="2.0" rx="1" fill="#16c79a"/><rect x="64.6" y="426.0" width="8.5" height="1.0" fill="#16c79a" opacity="0.4"/><line x1="80.4" y1="360.0" x2="80.4" y2="360.0" stroke="#16c79a"/><rect x="76.2" y="360.0" width="8.5" height="2.0" rx="1" fill="#16c79a"/><rect x="76.2" y="426.0" width="8.5" height="1.0" fill="#16c79a" opacity="0.4"/><line x1="92.0" y1="360.0" x2="92.0" y2="360.0" stroke="#16c79a"/><rect x="87.7" y="360.0" width="8.5" height="2.0" rx="1" fill="#16c79a"/><rect x="87.7" y="426.0" width="8.5" height="1.0" fill="#16c79a" opacity="0.4"/><line x1="103.5" y1="360.0" x2="103.5" y2="360.0" stroke="#16c79a"/><rect x="99.2" y="360.0" width="8.5" height="2.0" rx="1" fill="#16c79a"/><rect x="99.2" y="426.0" width="8.5" height="1.0" fill="#16c79a" opacity="0.4"/><line x1="115.0" y1="360.0" x2="115.0" y2="360.0" stroke="#16c79a"/><rect x="110.8" y="360.0" width="8.5" height="2.0" rx="1" fill="#16c79a"/><rect x="110.8" y="426.0" width="8.5" height="1.0" fill="#16c79a" opacity="0.4"/><line x1="126.6" y1="360.0" x2="126.6" y2="360.0" stroke="#16c79a"/><rect x="122.3" y="360.0" width="8.5" height="2.0" rx="1" fill="#16c79a"/><rect x="122.3" y="426.0" width="8.5" height="1.0" fill="#16c79a" opacity="0.4"/><line x1="138.1" y1="360.0" x2="138.1" y2="360.0" stroke="#16c79a"/><rect x="133.8" y="360.0" width="8.5" height="2.0" rx="1" fill="#16c79a"/><rect x="133.8" y="426.0" width="8.5" height="1.0" fill="#16c79a" opacity="0.4"/><line x1="149.7" y1="360.0" x2="149.7" y2="360.0" stroke="#16c79a"/><rect x="145.4" y="360.0" width="8.5" height="2.0" rx="1" fill="#16c79a"/><rect x="145.4" y="426.0" width="8.5" height="1.0" fill="#16c79a" opacity="0.4"/><line x1="161.2" y1="360.0" x2="161.2" y2="360.0" stroke="#16c79a"/><rect x="156.9" y="360.0" width="8.5" height="2.0" rx="1" fill="#16c79a"/><rect x="156.9" y="426.0" width="8.5" height="1.0" fill="#16c79a" opacity="0.4"/><line x1="172.7" y1="360.0" x2="172.7" y2="360.0" stroke="#16c79a"/><rect x="168.5" y="360.0" width="8.5" height="2.0" rx="1" fill="#16c79a"/><rect x="168.5" y="426.0" width="8.5" height="1.0" fill="#16c79a" opacity="0.4"/><line x1="184.3" y1="360.0" x2="184.3" y2="360.0" stroke="#16c79a"/><rect x="180.0" y="360.0" width="8.5" height="2.0" rx="1" fill="#16c79a"/><rect x="180.0" y="426.0" width="8.5" height="1.0" fill="#16c79a" opacity="0.4"/><line x1="195.8" y1="360.0" x2="195.8" y2="360.0" stroke="#16c79a"/><rect x="191.5" y="360.0" width="8.5" height="2.0" rx="1" fill="#16c79a"/><rect x="191.5" y="426.0" width="8.5" height="1.0" fill="#16c79a" opacity="0.4"/><line x1="207.3" y1="360.0" x2="207.3" y2="360.0" stroke="#16c79a"/><rect x="203.1" y="360.0" width="8.5" height="2.0" rx="1" fill="#16c79a"/><rect x="203.1" y="426.0" width="8.5" height="1.0" fill="#16c79a" opacity="0.4"/><line x1="218.9" y1="360.0" x2="218.9" y2="360.0" stroke="#16c79a"/><rect x="214.6" y="360.0" width="8.5" height="2.0" rx="1" fill="#16c79a"/><rect x="214.6" y="426.0" width="8.5" height="1.0" fill="#16c79a" opacity="0.4"/><line x1="230.4" y1="360.0" x2="230.4" y2="360.0" stroke="#16c79a"/><rect x="226.2" y="360.0" width="8.5" height="2.0" rx="1" fill="#16c79a"/><rect x="226.2" y="426.0" width="8.5" height="1.0" fill="#16c79a" opacity="0.4"/><line x1="242.0" y1="360.0" x2="242.0" y2="360.0" stroke="#16c79a"/><rect x="237.7" y="360.0" width="8.5" height="2.0" rx="1" fill="#16c79a"/><rect x="237.7" y="426.0" width="8.5" height="1.0" fill="#16c79a" opacity="0.4"/><line x1="253.5" y1="359.6" x2="253.5" y2="360.0" stroke="#16c79a"/><rect x="249.2" y="359.6" width="8.5" height="2.0" rx="1" fill="#16c79a"/><rect x="249.2" y="425.9" width="8.5" height="1.0" fill="#16c79a" opacity="0.4"/><line x1="265.0" y1="325.8" x2="265.0" y2="359.1" stroke="#16c79a"/><rect x="260.8" y="325.8" width="8.5" height="33.3" rx="1" fill="#16c79a"/><rect x="260.8" y="418.9" width="8.5" height="7.1" fill="#16c79a" opacity="0.4"/><line x1="276.6" y1="319.1" x2="276.6" y2="341.8" stroke="#f6465d"/><rect x="272.3" y="319.1" width="8.5" height="15.1" rx="1" fill="#f6465d"/><rect x="272.3" y="420.7" width="8.5" height="5.3" fill="#f6465d" opacity="0.4"/><line x1="288.1" y1="297.4" x2="288.1" y2="323.6" stroke="#16c79a"/><rect x="283.8" y="306.3" width="8.5" height="17.3" rx="1" fill="#16c79a"/><rect x="283.8" y="414.9" width="8.5" height="11.1" fill="#16c79a" opacity="0.4"/><line x1="299.7" y1="321.8" x2="299.7" y2="338.7" stroke="#f6465d"/><rect x="295.4" y="324.0" width="8.5" height="14.7" rx="1" fill="#f6465d"/><rect x="295.4" y="421.6" width="8.5" height="4.4" fill="#f6465d" opacity="0.4"/><line x1="311.2" y1="317.8" x2="311.2" y2="343.6" stroke="#16c79a"/><rect x="306.9" y="318.3" width="8.5" height="20.4" rx="1" fill="#16c79a"/><rect x="306.9" y="417.4" width="8.5" height="8.6" fill="#16c79a" opacity="0.4"/><line x1="322.7" y1="317.4" x2="322.7" y2="358.7" stroke="#f6465d"/><rect x="318.5" y="317.4" width="8.5" height="41.3" rx="1" fill="#f6465d"/><rect x="318.5" y="425.7" width="8.5" height="1.0" fill="#f6465d" opacity="0.4"/><line x1="334.3" y1="309.8" x2="334.3" y2="357.8" stroke="#16c79a"/><rect x="330.0" y="309.8" width="8.5" height="48.0" rx="1" fill="#16c79a"/><rect x="330.0" y="415.6" width="8.5" height="10.4" fill="#16c79a" opacity="0.4"/><line x1="345.8" y1="311.6" x2="345.8" y2="355.6" stroke="#f6465d"/><rect x="341.5" y="311.6" width="8.5" height="44.0" rx="1" fill="#f6465d"/><rect x="341.5" y="425.1" width="8.5" height="1.0" fill="#f6465d" opacity="0.4"/><line x1="357.3" y1="343.1" x2="357.3" y2="354.7" stroke="#16c79a"/><rect x="353.1" y="343.1" width="8.5" height="11.5" rx="1" fill="#16c79a"/><rect x="353.1" y="422.5" width="8.5" height="3.5" fill="#16c79a" opacity="0.4"/><line x1="368.9" y1="329.8" x2="368.9" y2="347.1" stroke="#16c79a"/><rect x="364.6" y="329.8" width="8.5" height="13.8" rx="1" fill="#16c79a"/><rect x="364.6" y="419.8" width="8.5" height="6.2" fill="#16c79a" opacity="0.4"/><line x1="380.4" y1="326.2" x2="380.4" y2="335.6" stroke="#16c79a"/><rect x="376.2" y="329.8" width="8.5" height="2.0" rx="1" fill="#16c79a"/><rect x="376.2" y="419.8" width="8.5" height="6.2" fill="#16c79a" opacity="0.4"/><line x1="392.0" y1="329.4" x2="392.0" y2="350.2" stroke="#f6465d"/><rect x="387.7" y="329.4" width="8.5" height="20.9" rx="1" fill="#f6465d"/><rect x="387.7" y="424.0" width="8.5" height="2.0" fill="#f6465d" opacity="0.4"/><line x1="403.5" y1="348.0" x2="403.5" y2="350.7" stroke="#16c79a"/><rect x="399.2" y="349.3" width="8.5" height="2.0" rx="1" fill="#16c79a"/><rect x="399.2" y="423.8" width="8.5" height="2.2" fill="#16c79a" opacity="0.4"/><line x1="415.0" y1="349.3" x2="415.0" y2="360.0" stroke="#f6465d"/><rect x="410.8" y="349.3" width="8.5" height="10.2" rx="1" fill="#f6465d"/><rect x="410.8" y="425.9" width="8.5" height="1.0" fill="#f6465d" opacity="0.4"/><line x1="426.6" y1="357.8" x2="426.6" y2="359.1" stroke="#16c79a"/><rect x="422.3" y="358.2" width="8.5" height="2.0" rx="1" fill="#16c79a"/><rect x="422.3" y="425.6" width="8.5" height="1.0" fill="#16c79a" opacity="0.4"/><line x1="438.1" y1="356.4" x2="438.1" y2="357.8" stroke="#16c79a"/><rect x="433.8" y="357.8" width="8.5" height="2.0" rx="1" fill="#16c79a"/><rect x="433.8" y="425.5" width="8.5" height="1.0" fill="#16c79a" opacity="0.4"/><line x1="449.7" y1="330.7" x2="449.7" y2="360.0" stroke="#16c79a"/><rect x="445.4" y="330.7" width="8.5" height="28.0" rx="1" fill="#16c79a"/><rect x="445.4" y="419.9" width="8.5" height="6.1" fill="#16c79a" opacity="0.4"/><line x1="461.2" y1="277.4" x2="461.2" y2="321.8" stroke="#16c79a"/><rect x="456.9" y="277.4" width="8.5" height="44.4" rx="1" fill="#16c79a"/><rect x="456.9" y="408.9" width="8.5" height="17.1" fill="#16c79a" opacity="0.4"/><line x1="472.7" y1="284.5" x2="472.7" y2="328.5" stroke="#f6465d"/><rect x="468.5" y="284.5" width="8.5" height="44.0" rx="1" fill="#f6465d"/><rect x="468.5" y="419.5" width="8.5" height="6.5" fill="#f6465d" opacity="0.4"/><line x1="484.3" y1="251.6" x2="484.3" y2="330.2" stroke="#16c79a"/><rect x="480.0" y="251.6" width="8.5" height="78.6" rx="1" fill="#16c79a"/><rect x="480.0" y="403.6" width="8.5" height="22.4" fill="#16c79a" opacity="0.4"/><line x1="495.8" y1="249.9" x2="495.8" y2="332.5" stroke="#f6465d"/><rect x="491.5" y="249.9" width="8.5" height="74.6" rx="1" fill="#f6465d"/><rect x="491.5" y="418.7" width="8.5" height="7.3" fill="#f6465d" opacity="0.4"/><line x1="507.3" y1="311.1" x2="507.3" y2="320.0" stroke="#f6465d"/><rect x="503.1" y="316.0" width="8.5" height="4.0" rx="1" fill="#f6465d"/><rect x="503.1" y="417.7" width="8.5" height="8.3" fill="#f6465d" opacity="0.4"/><line x1="518.9" y1="324.5" x2="518.9" y2="326.7" stroke="#f6465d"/><rect x="514.6" y="325.4" width="8.5" height="2.0" rx="1" fill="#f6465d"/><rect x="514.6" y="419.1" width="8.5" height="6.9" fill="#f6465d" opacity="0.4"/><line x1="530.4" y1="323.1" x2="530.4" y2="330.2" stroke="#16c79a"/><rect x="526.2" y="323.1" width="8.5" height="4.0" rx="1" fill="#16c79a"/><rect x="526.2" y="418.4" width="8.5" height="7.6" fill="#16c79a" opacity="0.4"/><line x1="542.0" y1="323.1" x2="542.0" y2="332.5" stroke="#f6465d"/><rect x="537.7" y="323.1" width="8.5" height="9.3" rx="1" fill="#f6465d"/><rect x="537.7" y="420.3" width="8.5" height="5.7" fill="#f6465d" opacity="0.4"/><line x1="553.5" y1="329.8" x2="553.5" y2="332.0" stroke="#16c79a"/><rect x="549.2" y="329.8" width="8.5" height="2.2" rx="1" fill="#16c79a"/><rect x="549.2" y="419.8" width="8.5" height="6.2" fill="#16c79a" opacity="0.4"/><line x1="565.0" y1="295.2" x2="565.0" y2="330.2" stroke="#16c79a"/><rect x="560.8" y="295.2" width="8.5" height="35.1" rx="1" fill="#16c79a"/><rect x="560.8" y="412.6" width="8.5" height="13.4" fill="#16c79a" opacity="0.4"/><line x1="576.6" y1="279.6" x2="576.6" y2="307.1" stroke="#f6465d"/><rect x="572.3" y="283.2" width="8.5" height="24.0" rx="1" fill="#f6465d"/><rect x="572.3" y="415.1" width="8.5" height="10.9" fill="#f6465d" opacity="0.4"/><line x1="588.1" y1="319.6" x2="588.1" y2="329.4" stroke="#f6465d"/><rect x="583.8" y="319.6" width="8.5" height="9.8" rx="1" fill="#f6465d"/><rect x="583.8" y="419.7" width="8.5" height="6.3" fill="#f6465d" opacity="0.4"/><line x1="599.7" y1="300.5" x2="599.7" y2="329.8" stroke="#16c79a"/><rect x="595.4" y="304.0" width="8.5" height="25.3" rx="1" fill="#16c79a"/><rect x="595.4" y="414.4" width="8.5" height="11.6" fill="#16c79a" opacity="0.4"/><line x1="611.2" y1="307.6" x2="611.2" y2="355.6" stroke="#f6465d"/><rect x="606.9" y="307.6" width="8.5" height="39.5" rx="1" fill="#f6465d"/><rect x="606.9" y="423.3" width="8.5" height="2.7" fill="#f6465d" opacity="0.4"/><line x1="622.7" y1="86.4" x2="622.7" y2="140.2" stroke="#16c79a"/><rect x="618.5" y="98.4" width="8.5" height="41.7" rx="1" fill="#16c79a"/><rect x="618.5" y="372.0" width="8.5" height="54.0" fill="#16c79a" opacity="0.4"/><line x1="28" y1="98.4" x2="624" y2="98.4" stroke="#ffb454" stroke-dasharray="6 4"/><rect x="628" y="89.4" width="50" height="17" rx="3" fill="#ffb454"/><text x="653" y="102.4" text-anchor="middle" font-size="10" font-weight="700" fill="#070b10">589</text><text x="30.0" y="440" font-size="9" fill="#55657a">JUN</text><text x="76.2" y="440" font-size="9" fill="#55657a">JUL</text><text x="122.3" y="440" font-size="9" fill="#55657a">AUG</text><text x="168.5" y="440" font-size="9" fill="#55657a">SEP</text><text x="214.6" y="440" font-size="9" fill="#55657a">OCT</text><text x="260.8" y="440" font-size="9" fill="#55657a">NOV</text><text x="306.9" y="440" font-size="9" fill="#55657a">DEC</text><text x="353.1" y="440" font-size="9" fill="#55657a">JAN</text><text x="399.2" y="440" font-size="9" fill="#55657a">FEB</text><text x="445.4" y="440" font-size="9" fill="#55657a">MAR</text><text x="491.5" y="440" font-size="9" fill="#55657a">MAR</text><text x="537.7" y="440" font-size="9" fill="#55657a">APR</text><text x="583.8" y="440" font-size="9" fill="#55657a">MAY</text><rect x="700" y="56" width="216" height="390" rx="8" fill="#0b1018" stroke="#1c2430"/><text x="714" y="80" font-size="11" letter-spacing="2" fill="#9fb2c8">ORDER BOOK</text><text x="902" y="80" text-anchor="end" font-size="9" fill="#55657a">REPOS</text><rect x="714.0" y="94" width="188.0" height="17" fill="#f6465d" opacity="0.16"/><text x="714" y="106" font-size="9.5" fill="#f6465d">TX-COMPOSER</text><text x="902" y="106" text-anchor="end" font-size="10" fill="#9fb2c8">★ 5</text><rect x="751.6" y="116" width="150.4" height="17" fill="#f6465d" opacity="0.16"/><text x="714" y="128" font-size="9.5" fill="#f6465d">SEAM-FRONTEND</text><text x="902" y="128" text-anchor="end" font-size="10" fill="#9fb2c8">★ 4</text><rect x="826.8" y="138" width="75.2" height="17" fill="#f6465d" opacity="0.16"/><text x="714" y="150" font-size="9.5" fill="#f6465d">SEAM-CONTRACTS</text><text x="902" y="150" text-anchor="end" font-size="10" fill="#9fb2c8">★ 2</text><rect x="826.8" y="160" width="75.2" height="17" fill="#f6465d" opacity="0.16"/><text x="714" y="172" font-size="9.5" fill="#f6465d">MOVEGPT</text><text x="902" y="172" text-anchor="end" font-size="10" fill="#9fb2c8">★ 2</text><rect x="826.8" y="182" width="75.2" height="17" fill="#f6465d" opacity="0.16"/><text x="714" y="194" font-size="9.5" fill="#f6465d">APTOS-POLYMARKE</text><text x="902" y="194" text-anchor="end" font-size="10" fill="#9fb2c8">★ 2</text><line x1="710" y1="207" x2="906" y2="207" stroke="#1c2430"/><text x="808.0" y="223" text-anchor="middle" font-size="11" font-weight="700" fill="#ffb454">MARK 2,858 COMMITS</text><line x1="710" y1="231" x2="906" y2="231" stroke="#1c2430"/><rect x="714" y="244" width="188.0" height="17" fill="#16c79a" opacity="0.16"/><text x="714" y="256" font-size="9.5" fill="#16c79a">SUI-OPTIONS</text><text x="902" y="256" text-anchor="end" font-size="10" fill="#9fb2c8">611c · 4w</text><rect x="714" y="266" width="29.8" height="17" fill="#16c79a" opacity="0.16"/><text x="714" y="278" font-size="9.5" fill="#16c79a">CASH.TRADING</text><text x="902" y="278" text-anchor="end" font-size="10" fill="#9fb2c8">97c · 4w</text><rect x="714" y="288" width="26.2" height="17" fill="#16c79a" opacity="0.16"/><text x="714" y="300" font-size="9.5" fill="#16c79a">APTOS-INTELLIGE</text><text x="902" y="300" text-anchor="end" font-size="10" fill="#9fb2c8">85c · 4w</text><rect x="714" y="310" width="5.2" height="17" fill="#16c79a" opacity="0.16"/><text x="714" y="322" font-size="9.5" fill="#16c79a">.GITHUB</text><text x="902" y="322" text-anchor="end" font-size="10" fill="#9fb2c8">17c · 4w</text><rect x="714" y="332" width="0.9" height="17" fill="#16c79a" opacity="0.16"/><text x="714" y="344" font-size="9.5" fill="#16c79a">APTOS-POLYMARKE</text><text x="902" y="344" text-anchor="end" font-size="10" fill="#9fb2c8">3c · 4w</text><text x="714" y="372" font-size="9" fill="#55657a">ASKS = STARS · BIDS = 4W COMMITS</text>
</svg>