<svg xmlns="http://www.w3.org/2000/svg" viewBox="0 0 940 560" width="940" font-family="ui-monospace,'JetBrains Mono','SF Mono',Menlo,Consolas,monospace">
<defs>
  <pattern id="dots" width="22" height="22" patternUnits="userSpaceOnUse">
    <circle cx="2" cy="2" r="0.9" fill="#1a2330"/>
  </pattern>
</defs>
<rect width="940" height="560" rx="14" fill="#070b10" stroke="#1c2430"/>
<line x1="0" y1="44" x2="940" y2="44" stroke="#1c2430"/>
<text x="24" y="28" font-size="14" font-weight="700" fill="#97fce4">SEAMMONEY-PERP</text><text x="186" y="28" font-size="11" fill="#55657a">ORG COMMITS / 52W</text><circle cx="332" cy="24" r="4" fill="#16c79a"><animate attributeName="opacity" values="1;0.2;1" dur="2s" repeatCount="indefinite"/></circle><text x="344" y="28" font-size="11" fill="#16c79a">LIVE</text><text x="916" y="28" text-anchor="end" font-size="11" fill="#9fb2c8">LAST <tspan fill="#97fce4" font-weight="700">3</tspan>   30D <tspan fill="#f6465d" font-weight="700">-85.9%</tspan>   52W VOL <tspan fill="#97fce4" font-weight="700">3,208</tspan>   REPOS <tspan fill="#ffb454" font-weight="700">27</tspan></text><rect x="20" y="56" width="660" height="390" rx="8" fill="#0b1018" stroke="#1c2430"/><rect x="20" y="56" width="660" height="390" rx="8" fill="url(#dots)"/><line x1="28" y1="360.0" x2="624" y2="360.0" stroke="#141b26" stroke-dasharray="2 6"/><text x="634" y="364.0" font-size="9" fill="#55657a">0</text><line x1="28" y1="287.5" x2="624" y2="287.5" stroke="#141b26" stroke-dasharray="2 6"/><text x="634" y="291.5" font-size="9" fill="#55657a">199</text><line x1="28" y1="215.0" x2="624" y2="215.0" stroke="#141b26" stroke-dasharray="2 6"/><text x="634" y="219.0" font-size="9" fill="#55657a">399</text><line x1="28" y1="142.5" x2="624" y2="142.5" stroke="#141b26" stroke-dasharray="2 6"/><text x="634" y="146.5" font-size="9" fill="#55657a">598</text><line x1="28" y1="70.0" x2="624" y2="70.0" stroke="#141b26" stroke-dasharray="2 6"/><text x="634" y="74.0" font-size="9" fill="#55657a">797</text><polyline points="34.3,360.0 45.8,360.0 57.3,360.0 68.9,360.0 80.4,360.0 92.0,360.0 103.5,360.0 115.0,360.0 126.6,360.0 138.1,360.0 149.7,360.0 161.2,360.0 172.7,360.0 184.3,360.0 195.8,360.0 207.3,359.6 218.9,332.0 230.4,338.9 242.0,316.0 253.5,342.5 265.0,325.8 276.6,358.9 288.1,313.4 299.7,339.3 311.2,344.4 322.7,335.3 334.3,335.3 345.8,351.6 357.3,351.3 368.9,359.6 380.4,358.5 392.0,357.5 403.5,336.0 415.0,292.3 426.6,334.2 438.1,271.2 449.7,330.9 461.2,327.3 472.7,332.7 484.3,329.8 495.8,337.4 507.3,335.3 518.9,306.9 530.4,316.7 542.0,334.9 553.5,314.2 565.0,349.4 576.6,94.4 588.1,357.5 599.7,346.9 611.2,326.2 622.7,358.9" fill="none" stroke="#97fce4" stroke-width="1" opacity="0.35"/><line x1="34.3" y1="360.0" x2="34.3" y2="360.0" stroke="#16c79a"/><rect x="30.0" y="360.0" width="8.5" height="2.0" rx="1" fill="#16c79a"/><rect x="30.0" y="426.0" width="8.5" height="1.0" fill="#16c79a" opacity="0.4"/><line x1="45.8" y1="360.0" x2="45.8" y2="360.0" stroke="#16c79a"/><rect x="41.5" y="360.0" width="8.5" height="2.0" rx="1" fill="#16c79a"/><rect x="41.5" y="426.0" width="8.5" height="1.0" fill="#16c79a" opacity="0.4"/><line x1="57.3" y1="360.0" x2="57.3" y2="360.0" stroke="#16c79a"/><rect x="53.1" y="360.0" width="8.5" height="2.0" rx="1" fill="#16c79a"/><rect x="53.1" y="426.0" width="8.5" height="1.0" fill="#16c79a" opacity="0.4"/><line x1="68.9" y1="360.0" x2="68.9" y2="360.0" stroke="#16c79a"/><rect x="64.6" y="360.0" width="8.5" height="2.0" rx="1" fill="#16c79a"/><rect x="64.6" y="426.0" width="8.5" height="1.0" fill="#16c79a" opacity="0.4"/><line x1="80.4" y1="360.0" x2="80.4" y2="360.0" stroke="#16c79a"/><rect x="76.2" y="360.0" width="8.5" height="2.0" rx="1" fill="#16c79a"/><rect x="76.2" y="426.0" width="8.5" height="1.0" fill="#16c79a" opacity="0.4"/><line x1="92.0" y1="360.0" x2="92.0" y2="360.0" stroke="#16c79a"/><rect x="87.7" y="360.0" width="8.5" height="2.0" rx="1" fill="#16c79a"/><rect x="87.7" y="426.0" width="8.5" height="1.0" fill="#16c79a" opacity="0.4"/><line x1="103.5" y1="360.0" x2="103.5" y2="360.0" stroke="#16c79a"/><rect x="99.2" y="360.0" width="8.5" height="2.0" rx="1" fill="#16c79a"/><rect x="99.2" y="426.0" width="8.5" height="1.0" fill="#16c79a" opacity="0.4"/><line x1="115.0" y1="360.0" x2="115.0" y2="360.0" stroke="#16c79a"/><rect x="110.8" y="360.0" width="8.5" height="2.0" rx="1" fill="#16c79a"/><rect x="110.8" y="426.0" width="8.5" height="1.0" fill="#16c79a" opacity="0.4"/><line x1="126.6" y1="360.0" x2="126.6" y2="360.0" stroke="#16c79a"/><rect x="122.3" y="360.0" width="8.5" height="2.0" rx="1" fill="#16c79a"/><rect x="122.3" y="426.0" width="8.5" height="1.0" fill="#16c79a" opacity="0.4"/><line x1="138.1" y1="360.0" x2="138.1" y2="360.0" stroke="#16c79a"/><rect x="133.8" y="360.0" width="8.5" height="2.0" rx="1" fill="#16c79a"/><rect x="133.8" y="426.0" width="8.5" height="1.0" fill="#16c79a" opacity="0.4"/><line x1="149.7" y1="360.0" x2="149.7" y2="360.0" stroke="#16c79a"/><rect x="145.4" y="360.0" width="8.5" height="2.0" rx="1" fill="#16c79a"/><rect x="145.4" y="426.0" width="8.5" height="1.0" fill="#16c79a" opacity="0.4"/><line x1="161.2" y1="360.0" x2="161.2" y2="360.0" stroke="#16c79a"/><rect x="156.9" y="360.0" width="8.5" height="2.0" rx="1" fill="#16c79a"/><rect x="156.9" y="426.0" width="8.5" height="1.0" fill="#16c79a" opacity="0.4"/><line x1="172.7" y1="360.0" x2="172.7" y2="360.0" stroke="#16c79a"/><rect x="168.5" y="360.0" width="8.5" height="2.0" rx="1" fill="#16c79a"/><rect x="168.5" y="426.0" width="8.5" height="1.0" fill="#16c79a" opacity="0.4"/><line x1="184.3" y1="360.0" x2="184.3" y2="360.0" stroke="#16c79a"/><rect x="180.0" y="360.0" width="8.5" height="2.0" rx="1" fill="#16c79a"/><rect x="180.0" y="426.0" width="8.5" height="1.0" fill="#16c79a" opacity="0.4"/><line x1="195.8" y1="360.0" x2="195.8" y2="360.0" stroke="#16c79a"/><rect x="191.5" y="360.0" width="8.5" height="2.0" rx="1" fill="#16c79a"/><rect x="191.5" y="426.0" width="8.5" height="1.0" fill="#16c79a" opacity="0.4"/><line x1="207.3" y1="359.6" x2="207.3" y2="360.0" stroke="#16c79a"/><rect x="203.1" y="359.6" width="8.5" height="2.0" rx="1" fill="#16c79a"/><rect x="203.1" y="425.9" width="8.5" height="1.0" fill="#16c79a" opacity="0.4"/><line x1="218.9" y1="332.0" x2="218.9" y2="359.3" stroke="#16c79a"/><rect x="214.6" y="332.0" width="8.5" height="27.3" rx="1" fill="#16c79a"/><rect x="214.6" y="420.3" width="8.5" height="5.7" fill="#16c79a" opacity="0.4"/><line x1="230.4" y1="326.5" x2="230.4" y2="345.1" stroke="#f6465d"/><rect x="226.2" y="326.5" width="8.5" height="12.4" rx="1" fill="#f6465d"/><rect x="226.2" y="421.7" width="8.5" height="4.3" fill="#f6465d" opacity="0.4"/><line x1="242.0" y1="308.7" x2="242.0" y2="330.2" stroke="#16c79a"/><rect x="237.7" y="316.0" width="8.5" height="14.2" rx="1" fill="#16c79a"/><rect x="237.7" y="417.0" width="8.5" height="9.0" fill="#16c79a" opacity="0.4"/><line x1="253.5" y1="328.7" x2="253.5" y2="342.5" stroke="#f6465d"/><rect x="249.2" y="330.5" width="8.5" height="12.0" rx="1" fill="#f6465d"/><rect x="249.2" y="422.4" width="8.5" height="3.6" fill="#f6465d" opacity="0.4"/><line x1="265.0" y1="325.4" x2="265.0" y2="346.5" stroke="#16c79a"/><rect x="260.8" y="325.8" width="8.5" height="16.7" rx="1" fill="#16c79a"/><rect x="260.8" y="419.0" width="8.5" height="7.0" fill="#16c79a" opacity="0.4"/><line x1="276.6" y1="325.1" x2="276.6" y2="358.9" stroke="#f6465d"/><rect x="272.3" y="325.1" width="8.5" height="33.8" rx="1" fill="#f6465d"/><rect x="272.3" y="425.8" width="8.5" height="1.0" fill="#f6465d" opacity="0.4"/><line x1="288.1" y1="313.4" x2="288.1" y2="358.2" stroke="#16c79a"/><rect x="283.8" y="313.4" width="8.5" height="44.7" rx="1" fill="#16c79a"/><rect x="283.8" y="416.5" width="8.5" height="9.5" fill="#16c79a" opacity="0.4"/><line x1="299.7" y1="303.2" x2="299.7" y2="339.6" stroke="#f6465d"/><rect x="295.4" y="312.3" width="8.5" height="26.9" rx="1" fill="#f6465d"/><rect x="295.4" y="421.8" width="8.5" height="4.2" fill="#f6465d" opacity="0.4"/><line x1="311.2" y1="336.4" x2="311.2" y2="344.4" stroke="#f6465d"/><rect x="306.9" y="339.3" width="8.5" height="5.1" rx="1" fill="#f6465d"/><rect x="306.9" y="422.8" width="8.5" height="3.2" fill="#f6465d" opacity="0.4"/><line x1="322.7" y1="335.3" x2="322.7" y2="349.4" stroke="#16c79a"/><rect x="318.5" y="335.3" width="8.5" height="11.3" rx="1" fill="#16c79a"/><rect x="318.5" y="421.0" width="8.5" height="5.0" fill="#16c79a" opacity="0.4"/><line x1="334.3" y1="332.4" x2="334.3" y2="340.0" stroke="#16c79a"/><rect x="330.0" y="335.3" width="8.5" height="2.0" rx="1" fill="#16c79a"/><rect x="330.0" y="421.0" width="8.5" height="5.0" fill="#16c79a" opacity="0.4"/><line x1="345.8" y1="334.9" x2="345.8" y2="351.6" stroke="#f6465d"/><rect x="341.5" y="334.9" width="8.5" height="16.7" rx="1" fill="#f6465d"/><rect x="341.5" y="424.3" width="8.5" height="1.7" fill="#f6465d" opacity="0.4"/><line x1="357.3" y1="350.2" x2="357.3" y2="352.4" stroke="#16c79a"/><rect x="353.1" y="351.3" width="8.5" height="2.0" rx="1" fill="#16c79a"/><rect x="353.1" y="424.2" width="8.5" height="1.8" fill="#16c79a" opacity="0.4"/><line x1="368.9" y1="351.3" x2="368.9" y2="360.0" stroke="#f6465d"/><rect x="364.6" y="351.3" width="8.5" height="8.4" rx="1" fill="#f6465d"/><rect x="364.6" y="425.9" width="8.5" height="1.0" fill="#f6465d" opacity="0.4"/><line x1="380.4" y1="358.2" x2="380.4" y2="359.3" stroke="#16c79a"/><rect x="376.2" y="358.5" width="8.5" height="2.0" rx="1" fill="#16c79a"/><rect x="376.2" y="425.7" width="8.5" height="1.0" fill="#16c79a" opacity="0.4"/><line x1="392.0" y1="357.1" x2="392.0" y2="358.2" stroke="#16c79a"/><rect x="387.7" y="357.5" width="8.5" height="2.0" rx="1" fill="#16c79a"/><rect x="387.7" y="425.5" width="8.5" height="1.0" fill="#16c79a" opacity="0.4"/><line x1="403.5" y1="336.0" x2="403.5" y2="359.3" stroke="#16c79a"/><rect x="399.2" y="336.0" width="8.5" height="22.2" rx="1" fill="#16c79a"/><rect x="399.2" y="421.1" width="8.5" height="4.9" fill="#16c79a" opacity="0.4"/><line x1="415.0" y1="292.3" x2="415.0" y2="328.7" stroke="#16c79a"/><rect x="410.8" y="292.3" width="8.5" height="36.4" rx="1" fill="#16c79a"/><rect x="410.8" y="412.2" width="8.5" height="13.8" fill="#16c79a" opacity="0.4"/><line x1="426.6" y1="298.2" x2="426.6" y2="334.2" stroke="#f6465d"/><rect x="422.3" y="298.2" width="8.5" height="36.0" rx="1" fill="#f6465d"/><rect x="422.3" y="420.7" width="8.5" height="5.3" fill="#f6465d" opacity="0.4"/><line x1="438.1" y1="271.2" x2="438.1" y2="335.6" stroke="#16c79a"/><rect x="433.8" y="271.2" width="8.5" height="64.4" rx="1" fill="#16c79a"/><rect x="433.8" y="408.0" width="8.5" height="18.0" fill="#16c79a" opacity="0.4"/><line x1="449.7" y1="269.8" x2="449.7" y2="337.4" stroke="#f6465d"/><rect x="445.4" y="269.8" width="8.5" height="61.1" rx="1" fill="#f6465d"/><rect x="445.4" y="420.1" width="8.5" height="5.9" fill="#f6465d" opacity="0.4"/><line x1="461.2" y1="320.0" x2="461.2" y2="327.3" stroke="#f6465d"/><rect x="456.9" y="324.0" width="8.5" height="3.3" rx="1" fill="#f6465d"/><rect x="456.9" y="419.3" width="8.5" height="6.7" fill="#f6465d" opacity="0.4"/><line x1="472.7" y1="330.9" x2="472.7" y2="332.7" stroke="#f6465d"/><rect x="468.5" y="331.6" width="8.5" height="2.0" rx="1" fill="#f6465d"/><rect x="468.5" y="420.5" width="8.5" height="5.5" fill="#f6465d" opacity="0.4"/><line x1="484.3" y1="329.8" x2="484.3" y2="335.6" stroke="#16c79a"/><rect x="480.0" y="329.8" width="8.5" height="3.3" rx="1" fill="#16c79a"/><rect x="480.0" y="419.9" width="8.5" height="6.1" fill="#16c79a" opacity="0.4"/><line x1="495.8" y1="329.8" x2="495.8" y2="337.4" stroke="#f6465d"/><rect x="491.5" y="329.8" width="8.5" height="7.6" rx="1" fill="#f6465d"/><rect x="491.5" y="421.4" width="8.5" height="4.6" fill="#f6465d" opacity="0.4"/><line x1="507.3" y1="335.3" x2="507.3" y2="337.1" stroke="#16c79a"/><rect x="503.1" y="335.3" width="8.5" height="2.0" rx="1" fill="#16c79a"/><rect x="503.1" y="421.0" width="8.5" height="5.0" fill="#16c79a" opacity="0.4"/><line x1="518.9" y1="306.9" x2="518.9" y2="335.6" stroke="#16c79a"/><rect x="514.6" y="306.9" width="8.5" height="28.7" rx="1" fill="#16c79a"/><rect x="514.6" y="415.2" width="8.5" height="10.8" fill="#16c79a" opacity="0.4"/><line x1="530.4" y1="294.2" x2="530.4" y2="316.7" stroke="#f6465d"/><rect x="526.2" y="297.1" width="8.5" height="19.6" rx="1" fill="#f6465d"/><rect x="526.2" y="417.2" width="8.5" height="8.8" fill="#f6465d" opacity="0.4"/><line x1="542.0" y1="326.9" x2="542.0" y2="334.9" stroke="#f6465d"/><rect x="537.7" y="326.9" width="8.5" height="8.0" rx="1" fill="#f6465d"/><rect x="537.7" y="420.9" width="8.5" height="5.1" fill="#f6465d" opacity="0.4"/><line x1="553.5" y1="311.2" x2="553.5" y2="335.3" stroke="#16c79a"/><rect x="549.2" y="314.2" width="8.5" height="20.7" rx="1" fill="#16c79a"/><rect x="549.2" y="416.7" width="8.5" height="9.3" fill="#16c79a" opacity="0.4"/><line x1="565.0" y1="317.1" x2="565.0" y2="356.4" stroke="#f6465d"/><rect x="560.8" y="317.1" width="8.5" height="32.4" rx="1" fill="#f6465d"/><rect x="560.8" y="423.9" width="8.5" height="2.1" fill="#f6465d" opacity="0.4"/><line x1="576.6" y1="86.4" x2="576.6" y2="179.9" stroke="#16c79a"/><rect x="572.3" y="94.4" width="8.5" height="85.5" rx="1" fill="#16c79a"/><rect x="572.3" y="372.0" width="8.5" height="54.0" fill="#16c79a" opacity="0.4"/><line x1="588.1" y1="264.0" x2="588.1" y2="357.5" stroke="#f6465d"/><rect x="583.8" y="264.0" width="8.5" height="93.5" rx="1" fill="#f6465d"/><rect x="583.8" y="425.5" width="8.5" height="1.0" fill="#f6465d" opacity="0.4"/><line x1="599.7" y1="346.9" x2="599.7" y2="357.5" stroke="#16c79a"/><rect x="595.4" y="346.9" width="8.5" height="10.6" rx="1" fill="#16c79a"/><rect x="595.4" y="423.3" width="8.5" height="2.7" fill="#16c79a" opacity="0.4"/><line x1="611.2" y1="321.4" x2="611.2" y2="331.6" stroke="#16c79a"/><rect x="606.9" y="326.2" width="8.5" height="2.5" rx="1" fill="#16c79a"/><rect x="606.9" y="419.1" width="8.5" height="6.9" fill="#16c79a" opacity="0.4"/><line x1="622.7" y1="344.0" x2="622.7" y2="358.9" stroke="#f6465d"/><rect x="618.5" y="344.0" width="8.5" height="14.9" rx="1" fill="#f6465d"/><rect x="618.5" y="425.8" width="8.5" height="1.0" fill="#f6465d" opacity="0.4"/><line x1="28" y1="358.9" x2="624" y2="358.9" stroke="#ffb454" stroke-dasharray="6 4"/><rect x="628" y="349.9" width="50" height="17" rx="3" fill="#ffb454"/><text x="653" y="362.9" text-anchor="middle" font-size="10" font-weight="700" fill="#070b10">3</text><text x="30.0" y="440" font-size="9" fill="#55657a">JUL</text><text x="76.2" y="440" font-size="9" fill="#55657a">AUG</text><text x="122.3" y="440" font-size="9" fill="#55657a">SEP</text><text x="168.5" y="440" font-size="9" fill="#55657a">OCT</text><text x="214.6" y="440" font-size="9" fill="#55657a">NOV</text><text x="260.8" y="440" font-size="9" fill="#55657a">DEC</text><text x="306.9" y="440" font-size="9" fill="#55657a">JAN</text><text x="353.1" y="440" font-size="9" fill="#55657a">FEB</text><text x="399.2" y="440" font-size="9" fill="#55657a">MAR</text><text x="445.4" y="440" font-size="9" fill="#55657a">MAR</text><text x="491.5" y="440" font-size="9" fill="#55657a">APR</text><text x="537.7" y="440" font-size="9" fill="#55657a">MAY</text><text x="583.8" y="440" font-size="9" fill="#55657a">JUN</text><rect x="700" y="56" width="216" height="390" rx="8" fill="#0b1018" stroke="#1c2430"/><text x="714" y="80" font-size="11" letter-spacing="2" fill="#9fb2c8">ORDER BOOK</text><text x="902" y="80" text-anchor="end" font-size="9" fill="#55657a">REPOS</text><rect x="714.0" y="94" width="188.0" height="17" fill="#f6465d" opacity="0.16"/><text x="714" y="106" font-size="9.5" fill="#f6465d">TX-COMPOSER</text><text x="902" y="106" text-anchor="end" font-size="10" fill="#9fb2c8">★ 5</text><rect x="751.6" y="116" width="150.4" height="17" fill="#f6465d" opacity="0.16"/><text x="714" y="128" font-size="9.5" fill="#f6465d">SEAM-FRONTEND</text><text x="902" y="128" text-anchor="end" font-size="10" fill="#9fb2c8">★ 4</text><rect x="826.8" y="138" width="75.2" height="17" fill="#f6465d" opacity="0.16"/><text x="714" y="150" font-size="9.5" fill="#f6465d">SEAM-CONTRACTS</text><text x="902" y="150" text-anchor="end" font-size="10" fill="#9fb2c8">★ 2</text><rect x="826.8" y="160" width="75.2" height="17" fill="#f6465d" opacity="0.16"/><text x="714" y="172" font-size="9.5" fill="#f6465d">MOVEGPT</text><text x="902" y="172" text-anchor="end" font-size="10" fill="#9fb2c8">★ 2</text><rect x="826.8" y="182" width="75.2" height="17" fill="#f6465d" opacity="0.16"/><text x="714" y="194" font-size="9.5" fill="#f6465d">APTOS-POLYMARKE</text><text x="902" y="194" text-anchor="end" font-size="10" fill="#9fb2c8">★ 2</text><line x1="710" y1="207" x2="906" y2="207" stroke="#1c2430"/><text x="808.0" y="223" text-anchor="middle" font-size="11" font-weight="700" fill="#ffb454">MARK 3,208 COMMITS</text><line x1="710" y1="231" x2="906" y2="231" stroke="#1c2430"/><rect x="714" y="244" width="188.0" height="17" fill="#16c79a" opacity="0.16"/><text x="714" y="256" font-size="9.5" fill="#16c79a">CASH.TRADING</text><text x="902" y="256" text-anchor="end" font-size="10" fill="#9fb2c8">117c · 4w</text><rect x="714" y="266" width="35.4" height="17" fill="#16c79a" opacity="0.16"/><text x="714" y="278" font-size="9.5" fill="#16c79a">.GITHUB</text><text x="902" y="278" text-anchor="end" font-size="10" fill="#9fb2c8">22c · 4w</text><rect x="714" y="288" width="0.0" height="17" fill="#16c79a" opacity="0.16"/><text x="714" y="300" font-size="9.5" fill="#16c79a">SEAM-CONTRACTS</text><text x="902" y="300" text-anchor="end" font-size="10" fill="#9fb2c8">0c · 4w</text><rect x="714" y="310" width="0.0" height="17" fill="#16c79a" opacity="0.16"/><text x="714" y="322" font-size="9.5" fill="#16c79a">SEAM-FRONTEND</text><text x="902" y="322" text-anchor="end" font-size="10" fill="#9fb2c8">0c · 4w</text><rect x="714" y="332" width="0.0" height="17" fill="#16c79a" opacity="0.16"/><text x="714" y="344" font-size="9.5" fill="#16c79a">DOCS</text><text x="902" y="344" text-anchor="end" font-size="10" fill="#9fb2c8">0c · 4w</text><text x="714" y="372" font-size="9" fill="#55657a">ASKS = STARS · BIDS = 4W COMMITS</text>
</svg>