<svg xmlns="http://www.w3.org/2000/svg" viewBox="0 0 940 384" width="940" font-family="ui-monospace,'JetBrains Mono','SF Mono',Menlo,Consolas,monospace">
<defs>
  <linearGradient id="bg" x1="0" y1="0" x2="0" y2="1">
    <stop offset="0" stop-color="#070b10"/><stop offset="1" stop-color="#10151d"/>
  </linearGradient>
  <filter id="soft" x="-30%" y="-30%" width="160%" height="160%">
    <feGaussianBlur stdDeviation="1.4" result="b"/>
    <feMerge><feMergeNode in="b"/><feMergeNode in="SourceGraphic"/></feMerge>
  </filter>
  <pattern id="scan" width="4" height="4" patternUnits="userSpaceOnUse">
    <rect width="4" height="2" fill="#000" opacity="0.14"/>
  </pattern>
</defs>
<rect width="940" height="384" rx="14" fill="url(#bg)" stroke="#1c2430"/>
<circle cx="26" cy="26" r="7" fill="#ff5f56"/><circle cx="48" cy="26" r="7" fill="#ffbd2e"/><circle cx="70" cy="26" r="7" fill="#27c93f"/>
<text x="470.0" y="31" text-anchor="middle" font-size="13" fill="#55657a">seam@money: ~/orgfetch</text>
<line x1="0" y1="46" x2="940" y2="46" stroke="#1c2430"/>
<text x="56" y="110" font-size="15" fill="#16c79a" xml:space="preserve" filter="url(#soft)">  $$$$$$\ </text><text x="56" y="129" font-size="15" fill="#16c79a" xml:space="preserve" filter="url(#soft)"> $$  __$$\</text><text x="56" y="148" font-size="15" fill="#16c79a" xml:space="preserve" filter="url(#soft)"> $$ /  \__|</text><text x="56" y="167" font-size="15" fill="#16c79a" xml:space="preserve" filter="url(#soft)"> \$$$$$$\ </text><text x="56" y="186" font-size="15" fill="#16c79a" xml:space="preserve" filter="url(#soft)">  \____$$\</text><text x="56" y="205" font-size="15" fill="#16c79a" xml:space="preserve" filter="url(#soft)"> $$\   $$ |</text><text x="56" y="224" font-size="15" fill="#16c79a" xml:space="preserve" filter="url(#soft)"> \$$$$$$  |</text><text x="56" y="243" font-size="15" fill="#16c79a" xml:space="preserve" filter="url(#soft)">  \______/ </text><text x="320" y="96" font-size="15" font-weight="700" fill="#97fce4" filter="url(#soft)">seam<tspan fill="#55657a">@</tspan><tspan fill="#a5d6ff">money</tspan></text><text x="320" y="117" font-size="13" fill="#1c2430" xml:space="preserve">----------------------------------------</text><g font-size="13"><text x="320" y="138" fill="#ffa657" font-weight="600">Org</text><text x="410" y="138" fill="#9fb2c8">Seam Money — onchain finance lab</text></g><g font-size="13"><text x="320" y="159" fill="#ffa657" font-weight="600">Founded</text><text x="410" y="159" fill="#9fb2c8">Aug 2022 · San Francisco</text></g><g font-size="13"><text x="320" y="180" fill="#ffa657" font-weight="600">Repos</text><text x="410" y="180" fill="#9fb2c8">26 public · 20 stars · 15 forks</text></g><g font-size="13"><text x="320" y="201" fill="#ffa657" font-weight="600">Commits</text><text x="410" y="201" fill="#9fb2c8">2,155 across all repos (12 mo)</text></g><g font-size="13"><text x="320" y="222" fill="#ffa657" font-weight="600">Stack</text><text x="410" y="222" fill="#9fb2c8">Move · TypeScript · Python · Rust</text></g><g font-size="13"><text x="320" y="243" fill="#ffa657" font-weight="600">Chains</text><text x="410" y="243" fill="#9fb2c8">Aptos · Sui · Solana · EVM</text></g><g font-size="13"><text x="320" y="264" fill="#ffa657" font-weight="600">Builds</text><text x="410" y="264" fill="#9fb2c8">DEXs · prediction markets · trading bots</text></g><g font-size="13"><text x="320" y="285" fill="#ffa657" font-weight="600">Human</text><text x="410" y="285" fill="#9fb2c8">github.com/maxmoneycash</text></g><rect x="320.0" y="320" width="216.0" height="12" fill="#3178c6"/><rect x="536.0" y="320" width="151.2" height="12" fill="#4a90e2"/><rect x="687.2" y="320" width="86.4" height="12" fill="#f1e05a"/><rect x="773.6" y="320" width="43.2" height="12" fill="#3572A5"/><circle cx="325" cy="352" r="5" fill="#3178c6"/><text x="336" y="356" font-size="11" fill="#9fb2c8">TypeScript 40%</text><circle cx="457" cy="352" r="5" fill="#4a90e2"/><text x="468" y="356" font-size="11" fill="#9fb2c8">Move 28%</text><circle cx="547" cy="352" r="5" fill="#f1e05a"/><text x="558" y="356" font-size="11" fill="#9fb2c8">JavaScript 16%</text><circle cx="679" cy="352" r="5" fill="#3572A5"/><text x="690" y="356" font-size="11" fill="#9fb2c8">Python 8%</text>
<rect width="940" height="384" rx="14" fill="url(#scan)"/>
</svg>