<svg xmlns="http://www.w3.org/2000/svg" viewBox="0 0 560 170" width="560" font-family="ui-monospace,'JetBrains Mono','SF Mono',Menlo,Consolas,monospace">
<defs>
  <linearGradient id="cardbg" x1="0" y1="0" x2="0" y2="1">
    <stop offset="0" stop-color="#0d1117"/><stop offset="1" stop-color="#0a0f16"/>
  </linearGradient>
  <linearGradient id="sparkfill" x1="0" y1="0" x2="0" y2="1">
    <stop offset="0" stop-color="#16c79a" stop-opacity="0.35"/>
    <stop offset="1" stop-color="#16c79a" stop-opacity="0.02"/>
  </linearGradient>
</defs>
<rect width="560" height="170" rx="12" fill="url(#cardbg)" stroke="#1c2430"/>
<text x="28" y="34" font-size="16" font-weight="700" fill="#97fce4">aptos-intelligence</text>
<text x="231.0" y="34" font-size="10" fill="#55657a">$APTOS</text>
<g>
  <rect x="478" y="20" width="54" height="20" rx="10" fill="#0b1018" stroke="#e34c26" stroke-opacity="0.6"/>
  <circle cx="491" cy="30" r="4" fill="#e34c26"/>
  <text x="526" y="34" text-anchor="end" font-size="10" fill="#9fb2c8">HTML</text>
</g>
<text x="28" y="64" font-size="11.5" fill="#9fb2c8">HTML project · est. Mar 2026</text>
<polygon points="28,144 28.0,144.0 34.3,144.0 40.5,144.0 46.8,144.0 53.1,144.0 59.4,144.0 65.6,144.0 71.9,144.0 78.2,144.0 84.5,144.0 90.7,144.0 97.0,144.0 103.3,144.0 109.6,144.0 115.8,144.0 122.1,144.0 128.4,144.0 134.7,144.0 140.9,144.0 147.2,144.0 153.5,144.0 159.8,144.0 166.0,144.0 172.3,144.0 178.6,144.0 184.9,144.0 191.1,144.0 197.4,144.0 203.7,144.0 210.0,144.0 216.2,144.0 222.5,144.0 228.8,144.0 235.1,143.1 241.3,143.1 247.6,127.4 253.9,144.0 260.2,113.7 266.4,104.0 272.7,110.0 279.0,114.1 285.3,116.0 291.5,117.3 297.8,118.3 304.1,120.1 310.4,122.9 316.6,126.1 322.9,144.0 329.2,144.0 335.5,144.0 341.7,144.0 348.0,144.0 348,144" fill="url(#sparkfill)"/>
<polyline points="28.0,144.0 34.3,144.0 40.5,144.0 46.8,144.0 53.1,144.0 59.4,144.0 65.6,144.0 71.9,144.0 78.2,144.0 84.5,144.0 90.7,144.0 97.0,144.0 103.3,144.0 109.6,144.0 115.8,144.0 122.1,144.0 128.4,144.0 134.7,144.0 140.9,144.0 147.2,144.0 153.5,144.0 159.8,144.0 166.0,144.0 172.3,144.0 178.6,144.0 184.9,144.0 191.1,144.0 197.4,144.0 203.7,144.0 210.0,144.0 216.2,144.0 222.5,144.0 228.8,144.0 235.1,143.1 241.3,143.1 247.6,127.4 253.9,144.0 260.2,113.7 266.4,104.0 272.7,110.0 279.0,114.1 285.3,116.0 291.5,117.3 297.8,118.3 304.1,120.1 310.4,122.9 316.6,126.1 322.9,144.0 329.2,144.0 335.5,144.0 341.7,144.0 348.0,144.0" fill="none" stroke="#16c79a" stroke-width="1.4"/>
<text x="28" y="160" font-size="9" fill="#55657a">52W COMMIT FLOW</text>
<g font-size="11" fill="#9fb2c8">
  <text x="532" y="112" text-anchor="end">★ 0   ⑂ 0</text>
  <text x="532" y="130" text-anchor="end"><tspan fill="#97fce4" font-weight="700">644</tspan> commits · 52w</text>
  <text x="532" y="148" text-anchor="end" fill="#55657a">pushed 1mo ago</text>
</g>
</svg>